TITLE: Rough Cut Export
FCM: NON-DROP FRAME

001  MGATES R V     C        00:00:33:23 00:00:53:01 00:00:00:00 00:00:19:08
* FROM CLIP NAME: MGates Rannie.mp4

002  MGATES R V     C        00:00:58:29 00:01:09:29 00:00:19:08 00:00:30:09
* FROM CLIP NAME: MGates Rannie.mp4

003  MGATES R V     C        00:01:11:23 00:01:19:12 00:00:30:09 00:00:37:28
* FROM CLIP NAME: MGates Rannie.mp4

004  MGATES R V     C        00:01:39:15 00:01:44:26 00:00:37:28 00:00:43:08
* FROM CLIP NAME: MGates Rannie.mp4

005  MGATES R V     C        00:01:47:06 00:02:00:21 00:00:43:08 00:00:56:23
* FROM CLIP NAME: MGates Rannie.mp4

006  MGATES R V     C        00:02:07:24 00:02:20:00 00:00:56:23 00:01:08:29
* FROM CLIP NAME: MGates Rannie.mp4

007  MGATES R V     C        00:02:23:07 00:02:24:29 00:01:08:29 00:01:10:22
* FROM CLIP NAME: MGates Rannie.mp4

008  MGATES R V     C        00:02:27:11 00:02:53:20 00:01:10:22 00:01:37:01
* FROM CLIP NAME: MGates Rannie.mp4

009  MGATES R V     C        00:02:56:23 00:03:03:12 00:01:37:01 00:01:43:20
* FROM CLIP NAME: MGates Rannie.mp4

010  MGATES R V     C        00:03:12:26 00:03:20:06 00:01:43:20 00:01:51:00
* FROM CLIP NAME: MGates Rannie.mp4

011  MGATES R V     C        00:03:23:13 00:03:25:29 00:01:51:00 00:01:53:16
* FROM CLIP NAME: MGates Rannie.mp4

012  MGATES R V     C        00:03:29:00 00:03:30:21 00:01:53:16 00:01:55:07
* FROM CLIP NAME: MGates Rannie.mp4

013  MGATES R V     C        00:04:00:29 00:04:05:26 00:01:55:07 00:02:00:05
* FROM CLIP NAME: MGates Rannie.mp4

014  MGATES R V     C        00:04:07:26 00:04:10:29 00:02:00:05 00:02:03:09
* FROM CLIP NAME: MGates Rannie.mp4

015  MGATES R V     C        00:04:13:07 00:04:20:14 00:02:03:09 00:02:10:15
* FROM CLIP NAME: MGates Rannie.mp4

016  MGATES R V     C        00:04:24:10 00:04:28:18 00:02:10:15 00:02:14:23
* FROM CLIP NAME: MGates Rannie.mp4

017  MGATES R V     C        00:04:30:25 00:04:34:29 00:02:14:23 00:02:18:26
* FROM CLIP NAME: MGates Rannie.mp4

018  MGATES R V     C        00:04:45:00 00:04:48:22 00:02:18:26 00:02:22:18
* FROM CLIP NAME: MGates Rannie.mp4

019  MGATES R V     C        00:04:53:12 00:05:03:17 00:02:22:18 00:02:32:23
* FROM CLIP NAME: MGates Rannie.mp4

020  MGATES R V     C        00:05:07:25 00:05:14:10 00:02:32:23 00:02:39:07
* FROM CLIP NAME: MGates Rannie.mp4

021  MGATES R V     C        00:05:26:29 00:05:30:23 00:02:39:07 00:02:43:01
* FROM CLIP NAME: MGates Rannie.mp4

022  MGATES R V     C        00:05:42:02 00:05:43:25 00:02:43:01 00:02:44:25
* FROM CLIP NAME: MGates Rannie.mp4

023  MGATES R V     C        00:05:44:20 00:05:47:12 00:02:44:25 00:02:47:17
* FROM CLIP NAME: MGates Rannie.mp4

024  MGATES R V     C        00:05:59:16 00:06:06:29 00:02:47:17 00:02:55:00
* FROM CLIP NAME: MGates Rannie.mp4

025  MGATES R V     C        00:06:09:18 00:06:12:29 00:02:55:00 00:02:58:11
* FROM CLIP NAME: MGates Rannie.mp4

026  MGATES R V     C        00:06:15:00 00:06:28:20 00:02:58:11 00:03:12:00
* FROM CLIP NAME: MGates Rannie.mp4

027  MGATES R V     C        00:06:33:14 00:06:38:16 00:03:12:00 00:03:17:01
* FROM CLIP NAME: MGates Rannie.mp4

028  MGATES R V     C        00:06:47:02 00:06:57:27 00:03:17:01 00:03:27:27
* FROM CLIP NAME: MGates Rannie.mp4

029  MGATES R V     C        00:07:01:23 00:07:09:27 00:03:27:27 00:03:36:01
* FROM CLIP NAME: MGates Rannie.mp4

030  MGATES R V     C        00:07:10:27 00:07:14:01 00:03:36:01 00:03:39:04
* FROM CLIP NAME: MGates Rannie.mp4

031  MGATES R V     C        00:07:24:11 00:07:38:03 00:03:39:04 00:03:52:27
* FROM CLIP NAME: MGates Rannie.mp4

032  MGATES R V     C        00:08:25:05 00:08:28:06 00:03:52:27 00:03:55:29
* FROM CLIP NAME: MGates Rannie.mp4

033  MGATES R V     C        00:08:36:19 00:08:49:17 00:03:55:29 00:04:08:27
* FROM CLIP NAME: MGates Rannie.mp4

034  MGATES R V     C        00:08:54:00 00:08:57:06 00:04:08:27 00:04:12:03
* FROM CLIP NAME: MGates Rannie.mp4

035  MGATES R V     C        00:08:58:24 00:09:00:14 00:04:12:03 00:04:13:23
* FROM CLIP NAME: MGates Rannie.mp4

036  MGATES R V     C        00:09:06:11 00:09:14:28 00:04:13:23 00:04:22:10
* FROM CLIP NAME: MGates Rannie.mp4

037  MGATES R V     C        00:09:19:02 00:09:30:09 00:04:22:10 00:04:33:17
* FROM CLIP NAME: MGates Rannie.mp4

038  MGATES R V     C        00:09:34:03 00:09:46:09 00:04:33:17 00:04:45:23
* FROM CLIP NAME: MGates Rannie.mp4

039  MGATES R V     C        00:09:46:18 00:09:48:18 00:04:45:23 00:04:47:23
* FROM CLIP NAME: MGates Rannie.mp4

040  MGATES R V     C        00:09:49:26 00:09:53:26 00:04:47:23 00:04:51:22
* FROM CLIP NAME: MGates Rannie.mp4

041  MGATES R V     C        00:10:08:21 00:10:13:05 00:04:51:22 00:04:56:06
* FROM CLIP NAME: MGates Rannie.mp4

042  MGATES R V     C        00:10:17:06 00:10:23:00 00:04:56:06 00:05:01:29
* FROM CLIP NAME: MGates Rannie.mp4

043  MGATES R V     C        00:10:31:26 00:10:34:23 00:05:01:29 00:05:04:25
* FROM CLIP NAME: MGates Rannie.mp4

044  MGATES R V     C        00:10:35:00 00:10:38:09 00:05:04:25 00:05:08:03
* FROM CLIP NAME: MGates Rannie.mp4

045  MGATES R V     C        00:10:40:13 00:10:50:17 00:05:08:03 00:05:18:07
* FROM CLIP NAME: MGates Rannie.mp4

046  MGATES R V     C        00:10:55:18 00:10:58:22 00:05:18:07 00:05:21:10
* FROM CLIP NAME: MGates Rannie.mp4

047  MGATES R V     C        00:11:09:08 00:11:14:09 00:05:21:10 00:05:26:11
* FROM CLIP NAME: MGates Rannie.mp4

048  MGATES R V     C        00:11:15:22 00:11:17:17 00:05:26:11 00:05:28:06
* FROM CLIP NAME: MGates Rannie.mp4

049  MGATES R V     C        00:11:20:15 00:11:24:15 00:05:28:06 00:05:32:06
* FROM CLIP NAME: MGates Rannie.mp4

050  MGATES R V     C        00:11:55:18 00:11:59:10 00:05:32:06 00:05:35:28
* FROM CLIP NAME: MGates Rannie.mp4

051  MGATES R V     C        00:12:00:27 00:12:06:24 00:05:35:28 00:05:41:25
* FROM CLIP NAME: MGates Rannie.mp4

052  MGATES R V     C        00:12:13:11 00:12:18:00 00:05:41:25 00:05:46:15
* FROM CLIP NAME: MGates Rannie.mp4

053  MGATES R V     C        00:12:29:22 00:12:57:00 00:05:46:15 00:06:13:23
* FROM CLIP NAME: MGates Rannie.mp4

054  MGATES R V     C        00:13:02:15 00:13:04:21 00:06:13:23 00:06:15:28
* FROM CLIP NAME: MGates Rannie.mp4

055  MGATES R V     C        00:13:06:28 00:13:15:29 00:06:15:28 00:06:25:00
* FROM CLIP NAME: MGates Rannie.mp4

056  MGATES R V     C        00:13:20:24 00:13:25:28 00:06:25:00 00:06:30:03
* FROM CLIP NAME: MGates Rannie.mp4

057  MGATES R V     C        00:13:27:26 00:13:35:25 00:06:30:03 00:06:38:02
* FROM CLIP NAME: MGates Rannie.mp4

058  MGATES R V     C        00:13:38:00 00:13:44:18 00:06:38:02 00:06:44:20
* FROM CLIP NAME: MGates Rannie.mp4

059  MGATES R V     C        00:13:45:17 00:13:49:09 00:06:44:20 00:06:48:13
* FROM CLIP NAME: MGates Rannie.mp4

060  MGATES R V     C        00:13:59:29 00:14:03:06 00:06:48:13 00:06:51:20
* FROM CLIP NAME: MGates Rannie.mp4

061  MGATES R V     C        00:14:16:00 00:14:26:27 00:06:51:20 00:07:02:17
* FROM CLIP NAME: MGates Rannie.mp4

062  MGATES R V     C        00:14:32:08 00:14:37:08 00:07:02:17 00:07:07:18
* FROM CLIP NAME: MGates Rannie.mp4

063  MGATES R V     C        00:14:38:17 00:14:54:11 00:07:07:18 00:07:23:13
* FROM CLIP NAME: MGates Rannie.mp4

064  MGATES R V     C        00:14:59:19 00:15:01:13 00:07:23:13 00:07:25:07
* FROM CLIP NAME: MGates Rannie.mp4

065  MGATES R V     C        00:15:05:06 00:15:13:07 00:07:25:07 00:07:33:07
* FROM CLIP NAME: MGates Rannie.mp4

066  MGATES R V     C        00:15:15:00 00:15:20:29 00:07:33:07 00:07:39:06
* FROM CLIP NAME: MGates Rannie.mp4

067  MGATES R V     C        00:15:22:00 00:15:26:22 00:07:39:06 00:07:43:29
* FROM CLIP NAME: MGates Rannie.mp4

068  MGATES R V     C        00:15:30:05 00:15:37:08 00:07:43:29 00:07:51:02
* FROM CLIP NAME: MGates Rannie.mp4

069  MGATES R V     C        00:15:38:09 00:15:42:05 00:07:51:02 00:07:54:28
* FROM CLIP NAME: MGates Rannie.mp4

070  MGATES R V     C        00:16:07:02 00:16:11:21 00:07:54:28 00:07:59:17
* FROM CLIP NAME: MGates Rannie.mp4

071  MGATES R V     C        00:16:15:24 00:16:18:06 00:07:59:17 00:08:01:28
* FROM CLIP NAME: MGates Rannie.mp4

072  MGATES R V     C        00:16:27:09 00:16:37:15 00:08:01:28 00:08:12:04
* FROM CLIP NAME: MGates Rannie.mp4

073  MGATES R V     C        00:16:42:02 00:16:44:12 00:08:12:04 00:08:14:15
* FROM CLIP NAME: MGates Rannie.mp4

074  MGATES R V     C        00:16:47:24 00:16:56:26 00:08:14:15 00:08:23:18
* FROM CLIP NAME: MGates Rannie.mp4

075  MGATES R V     C        00:16:58:08 00:17:02:01 00:08:23:18 00:08:27:11
* FROM CLIP NAME: MGates Rannie.mp4

076  MGATES R V     C        00:17:06:13 00:17:14:02 00:08:27:11 00:08:35:00
* FROM CLIP NAME: MGates Rannie.mp4

077  MGATES R V     C        00:17:34:26 00:17:41:03 00:08:35:00 00:08:41:07
* FROM CLIP NAME: MGates Rannie.mp4

