TITLE: Rough Cut Export
FCM: NON-DROP FRAME

001  TUCK RAN V     C        00:00:39:17 00:01:01:05 00:00:00:00 00:00:21:18
* FROM CLIP NAME: Tuck Rannie.mp4

002  TUCK RAN V     C        00:01:04:20 00:01:06:16 00:00:21:18 00:00:23:14
* FROM CLIP NAME: Tuck Rannie.mp4

003  TUCK RAN V     C        00:01:07:19 00:01:11:18 00:00:23:14 00:00:27:13
* FROM CLIP NAME: Tuck Rannie.mp4

004  TUCK RAN V     C        00:01:26:10 00:01:40:13 00:00:27:13 00:00:41:16
* FROM CLIP NAME: Tuck Rannie.mp4

005  TUCK RAN V     C        00:01:44:12 00:01:49:29 00:00:41:16 00:00:47:04
* FROM CLIP NAME: Tuck Rannie.mp4

006  TUCK RAN V     C        00:01:52:05 00:02:08:06 00:00:47:04 00:01:03:06
* FROM CLIP NAME: Tuck Rannie.mp4

007  TUCK RAN V     C        00:02:20:16 00:02:29:04 00:01:03:06 00:01:11:24
* FROM CLIP NAME: Tuck Rannie.mp4

008  TUCK RAN V     C        00:02:40:15 00:02:56:09 00:01:11:24 00:01:27:18
* FROM CLIP NAME: Tuck Rannie.mp4

009  TUCK RAN V     C        00:03:00:25 00:03:13:08 00:01:27:18 00:01:40:02
* FROM CLIP NAME: Tuck Rannie.mp4

010  TUCK RAN V     C        00:03:24:12 00:03:31:16 00:01:40:02 00:01:47:06
* FROM CLIP NAME: Tuck Rannie.mp4

011  TUCK RAN V     C        00:03:39:17 00:03:47:12 00:01:47:06 00:01:55:01
* FROM CLIP NAME: Tuck Rannie.mp4

012  TUCK RAN V     C        00:03:49:22 00:03:59:22 00:01:55:01 00:02:05:02
* FROM CLIP NAME: Tuck Rannie.mp4

013  TUCK RAN V     C        00:04:19:13 00:04:23:07 00:02:05:02 00:02:08:26
* FROM CLIP NAME: Tuck Rannie.mp4

014  TUCK RAN V     C        00:04:25:18 00:04:29:26 00:02:08:26 00:02:13:03
* FROM CLIP NAME: Tuck Rannie.mp4

015  TUCK RAN V     C        00:04:38:29 00:04:47:24 00:02:13:03 00:02:21:29
* FROM CLIP NAME: Tuck Rannie.mp4

016  TUCK RAN V     C        00:05:01:08 00:05:09:17 00:02:21:29 00:02:30:08
* FROM CLIP NAME: Tuck Rannie.mp4

017  TUCK RAN V     C        00:05:48:09 00:06:01:21 00:02:30:08 00:02:43:20
* FROM CLIP NAME: Tuck Rannie.mp4

018  TUCK RAN V     C        00:06:09:06 00:06:16:24 00:02:43:20 00:02:51:08
* FROM CLIP NAME: Tuck Rannie.mp4

019  TUCK RAN V     C        00:06:37:11 00:06:41:08 00:02:51:08 00:02:55:06
* FROM CLIP NAME: Tuck Rannie.mp4

020  TUCK RAN V     C        00:06:43:28 00:06:47:22 00:02:55:06 00:02:59:00
* FROM CLIP NAME: Tuck Rannie.mp4

021  TUCK RAN V     C        00:06:48:20 00:06:53:29 00:02:59:00 00:03:04:09
* FROM CLIP NAME: Tuck Rannie.mp4

022  TUCK RAN V     C        00:06:59:19 00:07:03:20 00:03:04:09 00:03:08:10
* FROM CLIP NAME: Tuck Rannie.mp4

023  TUCK RAN V     C        00:07:11:17 00:07:22:19 00:03:08:10 00:03:19:12
* FROM CLIP NAME: Tuck Rannie.mp4

024  TUCK RAN V     C        00:07:24:10 00:07:31:04 00:03:19:12 00:03:26:06
* FROM CLIP NAME: Tuck Rannie.mp4

025  TUCK RAN V     C        00:07:34:17 00:07:43:11 00:03:26:06 00:03:35:01
* FROM CLIP NAME: Tuck Rannie.mp4

026  TUCK RAN V     C        00:07:44:26 00:07:50:16 00:03:35:01 00:03:40:21
* FROM CLIP NAME: Tuck Rannie.mp4

027  TUCK RAN V     C        00:10:10:19 00:10:16:17 00:03:40:21 00:03:46:19
* FROM CLIP NAME: Tuck Rannie.mp4

028  TUCK RAN V     C        00:10:27:00 00:10:33:24 00:03:46:19 00:03:53:14
* FROM CLIP NAME: Tuck Rannie.mp4

029  TUCK RAN V     C        00:10:36:25 00:10:43:14 00:03:53:14 00:04:00:03
* FROM CLIP NAME: Tuck Rannie.mp4

030  TUCK RAN V     C        00:10:44:11 00:10:51:04 00:04:00:03 00:04:06:26
* FROM CLIP NAME: Tuck Rannie.mp4

031  TUCK RAN V     C        00:11:01:13 00:11:09:03 00:04:06:26 00:04:14:16
* FROM CLIP NAME: Tuck Rannie.mp4

032  TUCK RAN V     C        00:11:11:07 00:11:12:29 00:04:14:16 00:04:16:08
* FROM CLIP NAME: Tuck Rannie.mp4

033  TUCK RAN V     C        00:11:25:05 00:11:31:10 00:04:16:08 00:04:22:14
* FROM CLIP NAME: Tuck Rannie.mp4

034  TUCK RAN V     C        00:11:44:21 00:11:51:04 00:04:22:14 00:04:28:28
* FROM CLIP NAME: Tuck Rannie.mp4

035  TUCK RAN V     C        00:11:58:18 00:12:01:21 00:04:28:28 00:04:32:01
* FROM CLIP NAME: Tuck Rannie.mp4

036  TUCK RAN V     C        00:12:05:06 00:12:11:14 00:04:32:01 00:04:38:09
* FROM CLIP NAME: Tuck Rannie.mp4

037  TUCK RAN V     C        00:12:14:23 00:12:19:01 00:04:38:09 00:04:42:17
* FROM CLIP NAME: Tuck Rannie.mp4

038  TUCK RAN V     C        00:12:23:22 00:12:33:24 00:04:42:17 00:04:52:20
* FROM CLIP NAME: Tuck Rannie.mp4

039  TUCK RAN V     C        00:12:35:17 00:12:43:04 00:04:52:20 00:05:00:07
* FROM CLIP NAME: Tuck Rannie.mp4

040  TUCK RAN V     C        00:12:44:13 00:12:58:14 00:05:00:07 00:05:14:09
* FROM CLIP NAME: Tuck Rannie.mp4

041  TUCK RAN V     C        00:13:14:19 00:13:17:23 00:05:14:09 00:05:17:12
* FROM CLIP NAME: Tuck Rannie.mp4

042  TUCK RAN V     C        00:13:23:06 00:13:26:28 00:05:17:12 00:05:21:05
* FROM CLIP NAME: Tuck Rannie.mp4

043  TUCK RAN V     C        00:13:29:12 00:13:32:09 00:05:21:05 00:05:24:02
* FROM CLIP NAME: Tuck Rannie.mp4

044  TUCK RAN V     C        00:13:38:00 00:13:40:02 00:05:24:02 00:05:26:04
* FROM CLIP NAME: Tuck Rannie.mp4

045  TUCK RAN V     C        00:13:42:18 00:13:48:25 00:05:26:04 00:05:32:10
* FROM CLIP NAME: Tuck Rannie.mp4

046  TUCK RAN V     C        00:14:04:12 00:14:07:00 00:05:32:10 00:05:34:29
* FROM CLIP NAME: Tuck Rannie.mp4

047  TUCK RAN V     C        00:14:09:15 00:14:12:12 00:05:34:29 00:05:37:26
* FROM CLIP NAME: Tuck Rannie.mp4

048  TUCK RAN V     C        00:14:15:13 00:14:25:22 00:05:37:26 00:05:48:05
* FROM CLIP NAME: Tuck Rannie.mp4

049  TUCK RAN V     C        00:14:30:14 00:14:33:03 00:05:48:05 00:05:50:24
* FROM CLIP NAME: Tuck Rannie.mp4

050  TUCK RAN V     C        00:14:44:10 00:14:54:27 00:05:50:24 00:06:01:11
* FROM CLIP NAME: Tuck Rannie.mp4

051  TUCK RAN V     C        00:15:07:21 00:15:33:24 00:06:01:11 00:06:27:15
* FROM CLIP NAME: Tuck Rannie.mp4

052  TUCK RAN V     C        00:15:34:22 00:15:39:14 00:06:27:15 00:06:32:07
* FROM CLIP NAME: Tuck Rannie.mp4

053  TUCK RAN V     C        00:15:39:22 00:15:47:00 00:06:32:07 00:06:39:16
* FROM CLIP NAME: Tuck Rannie.mp4

054  TUCK RAN V     C        00:15:48:10 00:15:50:27 00:06:39:16 00:06:42:04
* FROM CLIP NAME: Tuck Rannie.mp4

055  TUCK RAN V     C        00:15:52:03 00:15:54:10 00:06:42:04 00:06:44:11
* FROM CLIP NAME: Tuck Rannie.mp4

056  TUCK RAN V     C        00:15:56:29 00:16:01:26 00:06:44:11 00:06:49:08
* FROM CLIP NAME: Tuck Rannie.mp4

057  TUCK RAN V     C        00:16:06:13 00:16:13:20 00:06:49:08 00:06:56:16
* FROM CLIP NAME: Tuck Rannie.mp4

058  TUCK RAN V     C        00:16:17:13 00:16:21:07 00:06:56:16 00:07:00:10
* FROM CLIP NAME: Tuck Rannie.mp4

059  TUCK RAN V     C        00:16:30:24 00:16:37:28 00:07:00:10 00:07:07:15
* FROM CLIP NAME: Tuck Rannie.mp4

060  TUCK RAN V     C        00:16:47:23 00:16:59:20 00:07:07:15 00:07:19:12
* FROM CLIP NAME: Tuck Rannie.mp4

061  TUCK RAN V     C        00:17:05:04 00:17:09:17 00:07:19:12 00:07:23:24
* FROM CLIP NAME: Tuck Rannie.mp4

062  TUCK RAN V     C        00:17:13:23 00:17:20:18 00:07:23:24 00:07:30:20
* FROM CLIP NAME: Tuck Rannie.mp4

063  TUCK RAN V     C        00:17:25:28 00:17:28:03 00:07:30:20 00:07:32:26
* FROM CLIP NAME: Tuck Rannie.mp4

064  TUCK RAN V     C        00:17:32:17 00:17:43:18 00:07:32:26 00:07:43:28
* FROM CLIP NAME: Tuck Rannie.mp4

065  TUCK RAN V     C        00:18:02:05 00:18:23:24 00:07:43:28 00:08:05:17
* FROM CLIP NAME: Tuck Rannie.mp4

066  TUCK RAN V     C        00:18:25:11 00:18:36:10 00:08:05:17 00:08:16:16
* FROM CLIP NAME: Tuck Rannie.mp4

067  TUCK RAN V     C        00:18:47:09 00:18:51:27 00:08:16:16 00:08:21:04
* FROM CLIP NAME: Tuck Rannie.mp4

068  TUCK RAN V     C        00:18:59:24 00:19:03:15 00:08:21:04 00:08:24:26
* FROM CLIP NAME: Tuck Rannie.mp4

069  TUCK RAN V     C        00:19:19:28 00:19:23:18 00:08:24:26 00:08:28:16
* FROM CLIP NAME: Tuck Rannie.mp4

070  TUCK RAN V     C        00:19:28:16 00:19:31:25 00:08:28:16 00:08:31:26
* FROM CLIP NAME: Tuck Rannie.mp4

071  TUCK RAN V     C        00:19:34:01 00:19:36:26 00:08:31:26 00:08:34:21
* FROM CLIP NAME: Tuck Rannie.mp4

072  TUCK RAN V     C        00:20:01:28 00:20:08:02 00:08:34:21 00:08:40:25
* FROM CLIP NAME: Tuck Rannie.mp4

073  TUCK RAN V     C        00:20:18:15 00:20:23:16 00:08:40:25 00:08:45:26
* FROM CLIP NAME: Tuck Rannie.mp4

074  TUCK RAN V     C        00:20:41:11 00:20:44:29 00:08:45:26 00:08:49:14
* FROM CLIP NAME: Tuck Rannie.mp4

075  TUCK RAN V     C        00:20:44:29 00:20:45:15 00:08:49:14 00:08:50:01
* FROM CLIP NAME: Tuck Rannie.mp4

076  TUCK RAN V     C        00:20:55:09 00:21:05:03 00:08:50:01 00:08:59:24
* FROM CLIP NAME: Tuck Rannie.mp4

077  TUCK RAN V     C        00:21:17:15 00:21:20:17 00:08:59:24 00:09:02:26
* FROM CLIP NAME: Tuck Rannie.mp4

078  TUCK RAN V     C        00:21:22:19 00:21:28:14 00:09:02:26 00:09:08:21
* FROM CLIP NAME: Tuck Rannie.mp4

079  TUCK RAN V     C        00:21:32:22 00:21:38:06 00:09:08:21 00:09:14:05
* FROM CLIP NAME: Tuck Rannie.mp4

080  TUCK RAN V     C        00:21:40:28 00:21:49:03 00:09:14:05 00:09:22:11
* FROM CLIP NAME: Tuck Rannie.mp4

081  TUCK RAN V     C        00:21:51:15 00:21:56:03 00:09:22:11 00:09:26:29
* FROM CLIP NAME: Tuck Rannie.mp4

082  TUCK RAN V     C        00:21:56:19 00:21:58:08 00:09:26:29 00:09:28:18
* FROM CLIP NAME: Tuck Rannie.mp4

083  TUCK RAN V     C        00:22:59:14 00:23:05:00 00:09:28:18 00:09:34:04
* FROM CLIP NAME: Tuck Rannie.mp4

084  TUCK RAN V     C        00:23:06:01 00:23:10:02 00:09:34:04 00:09:38:06
* FROM CLIP NAME: Tuck Rannie.mp4

085  TUCK RAN V     C        00:23:22:18 00:23:32:00 00:09:38:06 00:09:47:18
* FROM CLIP NAME: Tuck Rannie.mp4

086  TUCK RAN V     C        00:23:50:29 00:23:59:15 00:09:47:18 00:09:56:05
* FROM CLIP NAME: Tuck Rannie.mp4

087  TUCK RAN V     C        00:24:00:26 00:24:23:15 00:09:56:05 00:10:18:24
* FROM CLIP NAME: Tuck Rannie.mp4

088  TUCK RAN V     C        00:24:27:05 00:24:34:06 00:10:18:24 00:10:25:26
* FROM CLIP NAME: Tuck Rannie.mp4

089  TUCK RAN V     C        00:24:35:13 00:24:38:26 00:10:25:26 00:10:29:09
* FROM CLIP NAME: Tuck Rannie.mp4

090  TUCK RAN V     C        00:24:59:25 00:25:06:04 00:10:29:09 00:10:35:18
* FROM CLIP NAME: Tuck Rannie.mp4

091  TUCK RAN V     C        00:25:07:13 00:25:16:08 00:10:35:18 00:10:44:13
* FROM CLIP NAME: Tuck Rannie.mp4

092  TUCK RAN V     C        00:25:19:03 00:25:23:07 00:10:44:13 00:10:48:17
* FROM CLIP NAME: Tuck Rannie.mp4

093  TUCK RAN V     C        00:25:29:03 00:25:34:16 00:10:48:17 00:10:54:00
* FROM CLIP NAME: Tuck Rannie.mp4

094  TUCK RAN V     C        00:25:39:02 00:25:48:25 00:10:54:00 00:11:03:23
* FROM CLIP NAME: Tuck Rannie.mp4

