TITLE: Rough Cut Export
FCM: NON-DROP FRAME

001  SVR RANN V     C        00:00:43:11 00:00:58:28 00:00:00:00 00:00:15:17
* FROM CLIP NAME: SVR Rannie.mp4

002  SVR RANN V     C        00:01:31:26 00:01:40:07 00:00:15:17 00:00:23:29
* FROM CLIP NAME: SVR Rannie.mp4

003  SVR RANN V     C        00:01:41:29 00:01:46:26 00:00:23:29 00:00:28:25
* FROM CLIP NAME: SVR Rannie.mp4

004  SVR RANN V     C        00:01:49:17 00:01:53:06 00:00:28:25 00:00:32:14
* FROM CLIP NAME: SVR Rannie.mp4

005  SVR RANN V     C        00:01:55:26 00:02:00:13 00:00:32:14 00:00:37:01
* FROM CLIP NAME: SVR Rannie.mp4

006  SVR RANN V     C        00:02:11:02 00:02:18:17 00:00:37:01 00:00:44:16
* FROM CLIP NAME: SVR Rannie.mp4

007  SVR RANN V     C        00:02:24:02 00:02:30:13 00:00:44:16 00:00:50:27
* FROM CLIP NAME: SVR Rannie.mp4

008  SVR RANN V     C        00:02:35:12 00:02:43:18 00:00:50:27 00:00:59:02
* FROM CLIP NAME: SVR Rannie.mp4

009  SVR RANN V     C        00:02:45:24 00:03:10:06 00:00:59:02 00:01:23:14
* FROM CLIP NAME: SVR Rannie.mp4

010  SVR RANN V     C        00:03:15:12 00:03:30:05 00:01:23:14 00:01:38:07
* FROM CLIP NAME: SVR Rannie.mp4

011  SVR RANN V     C        00:03:46:16 00:04:17:10 00:01:38:07 00:02:09:00
* FROM CLIP NAME: SVR Rannie.mp4

012  SVR RANN V     C        00:04:20:18 00:04:29:23 00:02:09:00 00:02:18:05
* FROM CLIP NAME: SVR Rannie.mp4

013  SVR RANN V     C        00:04:34:00 00:04:40:15 00:02:18:05 00:02:24:19
* FROM CLIP NAME: SVR Rannie.mp4

014  SVR RANN V     C        00:05:00:14 00:05:07:04 00:02:24:19 00:02:31:09
* FROM CLIP NAME: SVR Rannie.mp4

015  SVR RANN V     C        00:05:08:20 00:05:14:27 00:02:31:09 00:02:37:16
* FROM CLIP NAME: SVR Rannie.mp4

016  SVR RANN V     C        00:05:16:29 00:05:21:00 00:02:37:16 00:02:41:18
* FROM CLIP NAME: SVR Rannie.mp4

017  SVR RANN V     C        00:05:37:23 00:05:43:05 00:02:41:18 00:02:47:00
* FROM CLIP NAME: SVR Rannie.mp4

018  SVR RANN V     C        00:05:47:15 00:06:01:05 00:02:47:00 00:03:00:20
* FROM CLIP NAME: SVR Rannie.mp4

019  SVR RANN V     C        00:06:08:28 00:06:14:27 00:03:00:20 00:03:06:19
* FROM CLIP NAME: SVR Rannie.mp4

020  SVR RANN V     C        00:06:21:05 00:06:25:22 00:03:06:19 00:03:11:06
* FROM CLIP NAME: SVR Rannie.mp4

021  SVR RANN V     C        00:06:49:08 00:07:02:10 00:03:11:06 00:03:24:08
* FROM CLIP NAME: SVR Rannie.mp4

022  SVR RANN V     C        00:07:05:09 00:07:12:06 00:03:24:08 00:03:31:05
* FROM CLIP NAME: SVR Rannie.mp4

023  SVR RANN V     C        00:07:14:20 00:07:31:16 00:03:31:05 00:03:48:01
* FROM CLIP NAME: SVR Rannie.mp4

024  SVR RANN V     C        00:07:39:00 00:07:54:25 00:03:48:01 00:04:03:26
* FROM CLIP NAME: SVR Rannie.mp4

025  SVR RANN V     C        00:08:22:08 00:08:30:18 00:04:03:26 00:04:12:07
* FROM CLIP NAME: SVR Rannie.mp4

026  SVR RANN V     C        00:08:35:03 00:08:37:04 00:04:12:07 00:04:14:08
* FROM CLIP NAME: SVR Rannie.mp4

027  SVR RANN V     C        00:08:44:03 00:08:57:03 00:04:14:08 00:04:27:08
* FROM CLIP NAME: SVR Rannie.mp4

028  SVR RANN V     C        00:08:59:11 00:09:12:13 00:04:27:08 00:04:40:10
* FROM CLIP NAME: SVR Rannie.mp4

029  SVR RANN V     C        00:09:34:10 00:09:40:12 00:04:40:10 00:04:46:12
* FROM CLIP NAME: SVR Rannie.mp4

030  SVR RANN V     C        00:09:45:00 00:09:49:17 00:04:46:12 00:04:50:29
* FROM CLIP NAME: SVR Rannie.mp4

031  SVR RANN V     C        00:09:55:11 00:10:13:04 00:04:50:29 00:05:08:22
* FROM CLIP NAME: SVR Rannie.mp4

032  SVR RANN V     C        00:10:22:10 00:10:32:03 00:05:08:22 00:05:18:16
* FROM CLIP NAME: SVR Rannie.mp4

033  SVR RANN V     C        00:10:32:24 00:10:38:01 00:05:18:16 00:05:23:22
* FROM CLIP NAME: SVR Rannie.mp4

034  SVR RANN V     C        00:10:54:02 00:11:01:24 00:05:23:22 00:05:31:13
* FROM CLIP NAME: SVR Rannie.mp4

035  SVR RANN V     C        00:11:05:20 00:11:14:21 00:05:31:13 00:05:40:15
* FROM CLIP NAME: SVR Rannie.mp4

036  SVR RANN V     C        00:11:48:11 00:12:15:16 00:05:40:15 00:06:07:20
* FROM CLIP NAME: SVR Rannie.mp4

037  SVR RANN V     C        00:12:22:03 00:12:24:10 00:06:07:20 00:06:09:27
* FROM CLIP NAME: SVR Rannie.mp4

038  SVR RANN V     C        00:12:25:20 00:12:30:26 00:06:09:27 00:06:15:03
* FROM CLIP NAME: SVR Rannie.mp4

039  SVR RANN V     C        00:12:32:13 00:12:35:17 00:06:15:03 00:06:18:08
* FROM CLIP NAME: SVR Rannie.mp4

040  SVR RANN V     C        00:12:38:20 00:12:42:18 00:06:18:08 00:06:22:06
* FROM CLIP NAME: SVR Rannie.mp4

041  SVR RANN V     C        00:13:08:21 00:13:24:10 00:06:22:06 00:06:37:24
* FROM CLIP NAME: SVR Rannie.mp4

042  SVR RANN V     C        00:13:30:08 00:13:33:13 00:06:37:24 00:06:41:00
* FROM CLIP NAME: SVR Rannie.mp4

043  SVR RANN V     C        00:13:40:18 00:13:47:11 00:06:41:00 00:06:47:22
* FROM CLIP NAME: SVR Rannie.mp4

044  SVR RANN V     C        00:13:49:24 00:13:51:11 00:06:47:22 00:06:49:10
* FROM CLIP NAME: SVR Rannie.mp4

045  SVR RANN V     C        00:13:53:17 00:13:57:06 00:06:49:10 00:06:52:29
* FROM CLIP NAME: SVR Rannie.mp4

046  SVR RANN V     C        00:14:00:08 00:14:24:09 00:06:52:29 00:07:17:01
* FROM CLIP NAME: SVR Rannie.mp4

047  SVR RANN V     C        00:14:26:22 00:14:29:02 00:07:17:01 00:07:19:11
* FROM CLIP NAME: SVR Rannie.mp4

048  SVR RANN V     C        00:14:31:24 00:14:34:11 00:07:19:11 00:07:21:28
* FROM CLIP NAME: SVR Rannie.mp4

049  SVR RANN V     C        00:14:41:14 00:14:43:26 00:07:21:28 00:07:24:11
* FROM CLIP NAME: SVR Rannie.mp4

050  SVR RANN V     C        00:14:45:01 00:14:49:10 00:07:24:11 00:07:28:20
* FROM CLIP NAME: SVR Rannie.mp4

051  SVR RANN V     C        00:14:53:14 00:14:56:22 00:07:28:20 00:07:31:27
* FROM CLIP NAME: SVR Rannie.mp4

052  SVR RANN V     C        00:15:00:02 00:15:17:18 00:07:31:27 00:07:49:13
* FROM CLIP NAME: SVR Rannie.mp4

053  SVR RANN V     C        00:15:24:06 00:15:47:15 00:07:49:13 00:08:12:22
* FROM CLIP NAME: SVR Rannie.mp4

054  SVR RANN V     C        00:15:48:08 00:16:02:02 00:08:12:22 00:08:26:16
* FROM CLIP NAME: SVR Rannie.mp4

055  SVR RANN V     C        00:16:10:20 00:16:16:07 00:08:26:16 00:08:32:04
* FROM CLIP NAME: SVR Rannie.mp4

056  SVR RANN V     C        00:16:18:15 00:16:24:10 00:08:32:04 00:08:37:29
* FROM CLIP NAME: SVR Rannie.mp4

057  SVR RANN V     C        00:16:25:11 00:16:30:15 00:08:37:29 00:08:43:03
* FROM CLIP NAME: SVR Rannie.mp4

058  SVR RANN V     C        00:16:34:12 00:16:42:16 00:08:43:03 00:08:51:07
* FROM CLIP NAME: SVR Rannie.mp4

059  SVR RANN V     C        00:16:44:15 00:16:55:07 00:08:51:07 00:09:01:29
* FROM CLIP NAME: SVR Rannie.mp4

060  SVR RANN V     C        00:17:07:23 00:17:17:00 00:09:01:29 00:09:11:07
* FROM CLIP NAME: SVR Rannie.mp4

061  SVR RANN V     C        00:17:20:14 00:17:24:06 00:09:11:07 00:09:14:28
* FROM CLIP NAME: SVR Rannie.mp4

062  SVR RANN V     C        00:17:31:25 00:17:36:21 00:09:14:28 00:09:19:24
* FROM CLIP NAME: SVR Rannie.mp4

063  SVR RANN V     C        00:17:41:13 00:17:44:26 00:09:19:24 00:09:23:07
* FROM CLIP NAME: SVR Rannie.mp4

064  SVR RANN V     C        00:18:11:10 00:18:16:27 00:09:23:07 00:09:28:23
* FROM CLIP NAME: SVR Rannie.mp4

065  SVR RANN V     C        00:18:55:24 00:19:03:24 00:09:28:23 00:09:36:22
* FROM CLIP NAME: SVR Rannie.mp4

066  SVR RANN V     C        00:19:08:04 00:19:13:25 00:09:36:22 00:09:42:13
* FROM CLIP NAME: SVR Rannie.mp4

067  SVR RANN V     C        00:19:29:00 00:19:44:05 00:09:42:13 00:09:57:17
* FROM CLIP NAME: SVR Rannie.mp4

068  SVR RANN V     C        00:19:47:14 00:19:48:25 00:09:57:17 00:09:58:28
* FROM CLIP NAME: SVR Rannie.mp4

069  SVR RANN V     C        00:19:53:20 00:20:06:18 00:09:58:28 00:10:11:26
* FROM CLIP NAME: SVR Rannie.mp4

070  SVR RANN V     C        00:20:24:24 00:20:38:22 00:10:11:26 00:10:25:23
* FROM CLIP NAME: SVR Rannie.mp4

071  SVR RANN V     C        00:21:08:14 00:21:22:29 00:10:25:23 00:10:40:07
* FROM CLIP NAME: SVR Rannie.mp4

072  SVR RANN V     C        00:21:23:20 00:21:30:17 00:10:40:07 00:10:47:04
* FROM CLIP NAME: SVR Rannie.mp4

073  SVR RANN V     C        00:21:37:09 00:21:41:10 00:10:47:04 00:10:51:05
* FROM CLIP NAME: SVR Rannie.mp4

074  SVR RANN V     C        00:22:17:02 00:22:24:15 00:10:51:05 00:10:58:17
* FROM CLIP NAME: SVR Rannie.mp4

075  SVR RANN V     C        00:22:35:21 00:22:45:16 00:10:58:17 00:11:08:11
* FROM CLIP NAME: SVR Rannie.mp4

076  SVR RANN V     C        00:22:47:21 00:22:49:14 00:11:08:11 00:11:10:05
* FROM CLIP NAME: SVR Rannie.mp4

077  SVR RANN V     C        00:22:55:06 00:22:57:21 00:11:10:05 00:11:12:20
* FROM CLIP NAME: SVR Rannie.mp4

078  SVR RANN V     C        00:23:08:27 00:23:12:11 00:11:12:20 00:11:16:04
* FROM CLIP NAME: SVR Rannie.mp4

079  SVR RANN V     C        00:23:17:00 00:23:30:18 00:11:16:04 00:11:29:22
* FROM CLIP NAME: SVR Rannie.mp4

080  SVR RANN V     C        00:23:49:23 00:24:03:17 00:11:29:22 00:11:43:16
* FROM CLIP NAME: SVR Rannie.mp4

081  SVR RANN V     C        00:24:05:27 00:24:08:24 00:11:43:16 00:11:46:13
* FROM CLIP NAME: SVR Rannie.mp4

082  SVR RANN V     C        00:24:13:08 00:24:19:27 00:11:46:13 00:11:53:03
* FROM CLIP NAME: SVR Rannie.mp4

083  SVR RANN V     C        00:24:27:25 00:24:42:18 00:11:53:03 00:12:07:26
* FROM CLIP NAME: SVR Rannie.mp4

084  SVR RANN V     C        00:25:09:09 00:25:18:11 00:12:07:26 00:12:16:28
* FROM CLIP NAME: SVR Rannie.mp4

085  SVR RANN V     C        00:25:34:26 00:25:46:05 00:12:16:28 00:12:28:07
* FROM CLIP NAME: SVR Rannie.mp4

086  SVR RANN V     C        00:25:48:26 00:25:55:16 00:12:28:07 00:12:34:27
* FROM CLIP NAME: SVR Rannie.mp4

087  SVR RANN V     C        00:26:00:02 00:26:02:26 00:12:34:27 00:12:37:21
* FROM CLIP NAME: SVR Rannie.mp4

088  SVR RANN V     C        00:26:05:26 00:26:09:06 00:12:37:21 00:12:41:01
* FROM CLIP NAME: SVR Rannie.mp4

089  SVR RANN V     C        00:26:14:24 00:26:23:20 00:12:41:01 00:12:49:26
* FROM CLIP NAME: SVR Rannie.mp4

090  SVR RANN V     C        00:26:36:11 00:27:31:11 00:12:49:26 00:13:44:26
* FROM CLIP NAME: SVR Rannie.mp4

091  SVR RANN V     C        00:27:35:02 00:27:40:23 00:13:44:26 00:13:50:16
* FROM CLIP NAME: SVR Rannie.mp4

092  SVR RANN V     C        00:27:45:15 00:28:27:18 00:13:50:16 00:14:32:19
* FROM CLIP NAME: SVR Rannie.mp4

093  SVR RANN V     C        00:28:27:21 00:28:34:17 00:14:32:19 00:14:39:14
* FROM CLIP NAME: SVR Rannie.mp4

094  SVR RANN V     C        00:28:44:21 00:28:48:23 00:14:39:14 00:14:43:15
* FROM CLIP NAME: SVR Rannie.mp4

095  SVR RANN V     C        00:28:51:17 00:29:02:14 00:14:43:15 00:14:54:12
* FROM CLIP NAME: SVR Rannie.mp4

096  SVR RANN V     C        00:29:07:21 00:29:30:09 00:14:54:12 00:15:17:00
* FROM CLIP NAME: SVR Rannie.mp4

097  SVR RANN V     C        00:29:32:04 00:29:42:05 00:15:17:00 00:15:27:01
* FROM CLIP NAME: SVR Rannie.mp4

098  SVR RANN V     C        00:29:47:26 00:30:25:21 00:15:27:01 00:16:04:27
* FROM CLIP NAME: SVR Rannie.mp4

099  SVR RANN V     C        00:30:25:27 00:30:48:26 00:16:04:27 00:16:27:25
* FROM CLIP NAME: SVR Rannie.mp4

100  SVR RANN V     C        00:30:49:17 00:30:59:23 00:16:27:25 00:16:38:01
* FROM CLIP NAME: SVR Rannie.mp4

101  SVR RANN V     C        00:31:04:02 00:31:26:15 00:16:38:01 00:17:00:14
* FROM CLIP NAME: SVR Rannie.mp4

102  SVR RANN V     C        00:31:33:21 00:31:45:03 00:17:00:14 00:17:11:26
* FROM CLIP NAME: SVR Rannie.mp4

103  SVR RANN V     C        00:31:49:20 00:32:30:03 00:17:11:26 00:17:52:09
* FROM CLIP NAME: SVR Rannie.mp4

