<?xml version="1.0" encoding="UTF-8"?>
<xmeml version="5">
  <project>
    <name>Gling Export</name>
    <children>
      <file id="file-asset-1770283684686">
        <name>5eb158dd-ef48-422d-b7d6-f7aff6d84f26.mp4</name>
        <pathurl>file:///C:/Users/USER/OneDrive/Desktop/Antigravity project/video-editor/Video-Editor-App/public/uploads/5eb158dd-ef48-422d-b7d6-f7aff6d84f26.mp4</pathurl>
        <rate>
          <timebase>30</timebase>
          <ntsc>FALSE</ntsc>
        </rate>
        <duration>46398</duration>
        <timecode>
          <rate>
            <timebase>30</timebase>
            <ntsc>FALSE</ntsc>
          </rate>
          <string>00:00:00:00</string>
          <frame>0</frame>
          <displayformat>NDF</displayformat>
        </timecode>
        <media>
          <video>
            <samplecharacteristics>
              <width>854</width>
              <height>480</height>
              <pixelaspectratio>square</pixelaspectratio>
              <fielddominance>none</fielddominance>
            </samplecharacteristics>
          </video>
          <audio>
            <numChannels>2</numChannels>
            <samplecharacteristics>
              <depth>16</depth>
              <samplerate>48000</samplerate>
            </samplecharacteristics>
          </audio>
        </media>
      </file>
      <sequence id="RoughCutSequence">
        <name>Rough Cut Sequence</name>
        <duration>26561</duration>
        <rate>
          <timebase>30</timebase>
          <ntsc>FALSE</ntsc>
        </rate>
        <timecode>
          <rate>
            <timebase>30</timebase>
            <ntsc>FALSE</ntsc>
          </rate>
          <string>00:00:00:00</string>
          <frame>0</frame>
          <displayformat>NDF</displayformat>
        </timecode>
        <media>
          <video>
            <format>
              <samplecharacteristics>
                <width>854</width>
                <height>480</height>
                <rate>
                  <timebase>30</timebase>
                  <ntsc>FALSE</ntsc>
                </rate>
              </samplecharacteristics>
            </format>
            <track>
              <clipitem id="clipitem-v-0">
                <masterclipid>file-asset-1770283684686</masterclipid>
                <name>5eb158dd-ef48-422d-b7d6-f7aff6d84f26.mp4</name>
                <rate>
                  <timebase>30</timebase>
                  <ntsc>FALSE</ntsc>
                </rate>
                <duration>212</duration>
                <start>0</start>
                <end>212</end>
                <in>1239</in>
                <out>1451</out>
                <sourcetrack>
                  <mediatype>video</mediatype>
                  <trackindex>1</trackindex>
                </sourcetrack>
                <file ref="file-asset-1770283684686" />
              </clipitem>
              <clipitem id="clipitem-v-1">
                <masterclipid>file-asset-1770283684686</masterclipid>
                <name>5eb158dd-ef48-422d-b7d6-f7aff6d84f26.mp4</name>
                <rate>
                  <timebase>30</timebase>
                  <ntsc>FALSE</ntsc>
                </rate>
                <duration>307</duration>
                <start>212</start>
                <end>519</end>
                <in>1610</in>
                <out>1917</out>
                <sourcetrack>
                  <mediatype>video</mediatype>
                  <trackindex>1</trackindex>
                </sourcetrack>
                <file ref="file-asset-1770283684686" />
              </clipitem>
              <clipitem id="clipitem-v-2">
                <masterclipid>file-asset-1770283684686</masterclipid>
                <name>5eb158dd-ef48-422d-b7d6-f7aff6d84f26.mp4</name>
                <rate>
                  <timebase>30</timebase>
                  <ntsc>FALSE</ntsc>
                </rate>
                <duration>208</duration>
                <start>519</start>
                <end>727</end>
                <in>1987</in>
                <out>2195</out>
                <sourcetrack>
                  <mediatype>video</mediatype>
                  <trackindex>1</trackindex>
                </sourcetrack>
                <file ref="file-asset-1770283684686" />
              </clipitem>
              <clipitem id="clipitem-v-3">
                <masterclipid>file-asset-1770283684686</masterclipid>
                <name>5eb158dd-ef48-422d-b7d6-f7aff6d84f26.mp4</name>
                <rate>
                  <timebase>30</timebase>
                  <ntsc>FALSE</ntsc>
                </rate>
                <duration>688</duration>
                <start>727</start>
                <end>1415</end>
                <in>2758</in>
                <out>3446</out>
                <sourcetrack>
                  <mediatype>video</mediatype>
                  <trackindex>1</trackindex>
                </sourcetrack>
                <file ref="file-asset-1770283684686" />
              </clipitem>
              <clipitem id="clipitem-v-4">
                <masterclipid>file-asset-1770283684686</masterclipid>
                <name>5eb158dd-ef48-422d-b7d6-f7aff6d84f26.mp4</name>
                <rate>
                  <timebase>30</timebase>
                  <ntsc>FALSE</ntsc>
                </rate>
                <duration>349</duration>
                <start>1415</start>
                <end>1764</end>
                <in>3453</in>
                <out>3802</out>
                <sourcetrack>
                  <mediatype>video</mediatype>
                  <trackindex>1</trackindex>
                </sourcetrack>
                <file ref="file-asset-1770283684686" />
              </clipitem>
              <clipitem id="clipitem-v-5">
                <masterclipid>file-asset-1770283684686</masterclipid>
                <name>5eb158dd-ef48-422d-b7d6-f7aff6d84f26.mp4</name>
                <rate>
                  <timebase>30</timebase>
                  <ntsc>FALSE</ntsc>
                </rate>
                <duration>456</duration>
                <start>1764</start>
                <end>2220</end>
                <in>3979</in>
                <out>4435</out>
                <sourcetrack>
                  <mediatype>video</mediatype>
                  <trackindex>1</trackindex>
                </sourcetrack>
                <file ref="file-asset-1770283684686" />
              </clipitem>
              <clipitem id="clipitem-v-6">
                <masterclipid>file-asset-1770283684686</masterclipid>
                <name>5eb158dd-ef48-422d-b7d6-f7aff6d84f26.mp4</name>
                <rate>
                  <timebase>30</timebase>
                  <ntsc>FALSE</ntsc>
                </rate>
                <duration>225</duration>
                <start>2220</start>
                <end>2445</end>
                <in>4650</in>
                <out>4875</out>
                <sourcetrack>
                  <mediatype>video</mediatype>
                  <trackindex>1</trackindex>
                </sourcetrack>
                <file ref="file-asset-1770283684686" />
              </clipitem>
              <clipitem id="clipitem-v-7">
                <masterclipid>file-asset-1770283684686</masterclipid>
                <name>5eb158dd-ef48-422d-b7d6-f7aff6d84f26.mp4</name>
                <rate>
                  <timebase>30</timebase>
                  <ntsc>FALSE</ntsc>
                </rate>
                <duration>677</duration>
                <start>2445</start>
                <end>3122</end>
                <in>4944</in>
                <out>5621</out>
                <sourcetrack>
                  <mediatype>video</mediatype>
                  <trackindex>1</trackindex>
                </sourcetrack>
                <file ref="file-asset-1770283684686" />
              </clipitem>
              <clipitem id="clipitem-v-8">
                <masterclipid>file-asset-1770283684686</masterclipid>
                <name>5eb158dd-ef48-422d-b7d6-f7aff6d84f26.mp4</name>
                <rate>
                  <timebase>30</timebase>
                  <ntsc>FALSE</ntsc>
                </rate>
                <duration>1073</duration>
                <start>3122</start>
                <end>4195</end>
                <in>5652</in>
                <out>6725</out>
                <sourcetrack>
                  <mediatype>video</mediatype>
                  <trackindex>1</trackindex>
                </sourcetrack>
                <file ref="file-asset-1770283684686" />
              </clipitem>
              <clipitem id="clipitem-v-9">
                <masterclipid>file-asset-1770283684686</masterclipid>
                <name>5eb158dd-ef48-422d-b7d6-f7aff6d84f26.mp4</name>
                <rate>
                  <timebase>30</timebase>
                  <ntsc>FALSE</ntsc>
                </rate>
                <duration>431</duration>
                <start>4195</start>
                <end>4626</end>
                <in>7593</in>
                <out>8024</out>
                <sourcetrack>
                  <mediatype>video</mediatype>
                  <trackindex>1</trackindex>
                </sourcetrack>
                <file ref="file-asset-1770283684686" />
              </clipitem>
              <clipitem id="clipitem-v-10">
                <masterclipid>file-asset-1770283684686</masterclipid>
                <name>5eb158dd-ef48-422d-b7d6-f7aff6d84f26.mp4</name>
                <rate>
                  <timebase>30</timebase>
                  <ntsc>FALSE</ntsc>
                </rate>
                <duration>171</duration>
                <start>4626</start>
                <end>4797</end>
                <in>9217</in>
                <out>9388</out>
                <sourcetrack>
                  <mediatype>video</mediatype>
                  <trackindex>1</trackindex>
                </sourcetrack>
                <file ref="file-asset-1770283684686" />
              </clipitem>
              <clipitem id="clipitem-v-11">
                <masterclipid>file-asset-1770283684686</masterclipid>
                <name>5eb158dd-ef48-422d-b7d6-f7aff6d84f26.mp4</name>
                <rate>
                  <timebase>30</timebase>
                  <ntsc>FALSE</ntsc>
                </rate>
                <duration>412</duration>
                <start>4797</start>
                <end>5209</end>
                <in>10181</in>
                <out>10593</out>
                <sourcetrack>
                  <mediatype>video</mediatype>
                  <trackindex>1</trackindex>
                </sourcetrack>
                <file ref="file-asset-1770283684686" />
              </clipitem>
              <clipitem id="clipitem-v-12">
                <masterclipid>file-asset-1770283684686</masterclipid>
                <name>5eb158dd-ef48-422d-b7d6-f7aff6d84f26.mp4</name>
                <rate>
                  <timebase>30</timebase>
                  <ntsc>FALSE</ntsc>
                </rate>
                <duration>633</duration>
                <start>5209</start>
                <end>5842</end>
                <in>11569</in>
                <out>12202</out>
                <sourcetrack>
                  <mediatype>video</mediatype>
                  <trackindex>1</trackindex>
                </sourcetrack>
                <file ref="file-asset-1770283684686" />
              </clipitem>
              <clipitem id="clipitem-v-13">
                <masterclipid>file-asset-1770283684686</masterclipid>
                <name>5eb158dd-ef48-422d-b7d6-f7aff6d84f26.mp4</name>
                <rate>
                  <timebase>30</timebase>
                  <ntsc>FALSE</ntsc>
                </rate>
                <duration>359</duration>
                <start>5842</start>
                <end>6201</end>
                <in>13752</in>
                <out>14111</out>
                <sourcetrack>
                  <mediatype>video</mediatype>
                  <trackindex>1</trackindex>
                </sourcetrack>
                <file ref="file-asset-1770283684686" />
              </clipitem>
              <clipitem id="clipitem-v-14">
                <masterclipid>file-asset-1770283684686</masterclipid>
                <name>5eb158dd-ef48-422d-b7d6-f7aff6d84f26.mp4</name>
                <rate>
                  <timebase>30</timebase>
                  <ntsc>FALSE</ntsc>
                </rate>
                <duration>629</duration>
                <start>6201</start>
                <end>6830</end>
                <in>14202</in>
                <out>14831</out>
                <sourcetrack>
                  <mediatype>video</mediatype>
                  <trackindex>1</trackindex>
                </sourcetrack>
                <file ref="file-asset-1770283684686" />
              </clipitem>
              <clipitem id="clipitem-v-15">
                <masterclipid>file-asset-1770283684686</masterclipid>
                <name>5eb158dd-ef48-422d-b7d6-f7aff6d84f26.mp4</name>
                <rate>
                  <timebase>30</timebase>
                  <ntsc>FALSE</ntsc>
                </rate>
                <duration>418</duration>
                <start>6830</start>
                <end>7248</end>
                <in>15352</in>
                <out>15770</out>
                <sourcetrack>
                  <mediatype>video</mediatype>
                  <trackindex>1</trackindex>
                </sourcetrack>
                <file ref="file-asset-1770283684686" />
              </clipitem>
              <clipitem id="clipitem-v-16">
                <masterclipid>file-asset-1770283684686</masterclipid>
                <name>5eb158dd-ef48-422d-b7d6-f7aff6d84f26.mp4</name>
                <rate>
                  <timebase>30</timebase>
                  <ntsc>FALSE</ntsc>
                </rate>
                <duration>170</duration>
                <start>7248</start>
                <end>7418</end>
                <in>16133</in>
                <out>16303</out>
                <sourcetrack>
                  <mediatype>video</mediatype>
                  <trackindex>1</trackindex>
                </sourcetrack>
                <file ref="file-asset-1770283684686" />
              </clipitem>
              <clipitem id="clipitem-v-17">
                <masterclipid>file-asset-1770283684686</masterclipid>
                <name>5eb158dd-ef48-422d-b7d6-f7aff6d84f26.mp4</name>
                <rate>
                  <timebase>30</timebase>
                  <ntsc>FALSE</ntsc>
                </rate>
                <duration>149</duration>
                <start>7418</start>
                <end>7567</end>
                <in>16545</in>
                <out>16694</out>
                <sourcetrack>
                  <mediatype>video</mediatype>
                  <trackindex>1</trackindex>
                </sourcetrack>
                <file ref="file-asset-1770283684686" />
              </clipitem>
              <clipitem id="clipitem-v-18">
                <masterclipid>file-asset-1770283684686</masterclipid>
                <name>5eb158dd-ef48-422d-b7d6-f7aff6d84f26.mp4</name>
                <rate>
                  <timebase>30</timebase>
                  <ntsc>FALSE</ntsc>
                </rate>
                <duration>683</duration>
                <start>7567</start>
                <end>8250</end>
                <in>17243</in>
                <out>17926</out>
                <sourcetrack>
                  <mediatype>video</mediatype>
                  <trackindex>1</trackindex>
                </sourcetrack>
                <file ref="file-asset-1770283684686" />
              </clipitem>
              <clipitem id="clipitem-v-19">
                <masterclipid>file-asset-1770283684686</masterclipid>
                <name>5eb158dd-ef48-422d-b7d6-f7aff6d84f26.mp4</name>
                <rate>
                  <timebase>30</timebase>
                  <ntsc>FALSE</ntsc>
                </rate>
                <duration>443</duration>
                <start>8250</start>
                <end>8693</end>
                <in>17986</in>
                <out>18429</out>
                <sourcetrack>
                  <mediatype>video</mediatype>
                  <trackindex>1</trackindex>
                </sourcetrack>
                <file ref="file-asset-1770283684686" />
              </clipitem>
              <clipitem id="clipitem-v-20">
                <masterclipid>file-asset-1770283684686</masterclipid>
                <name>5eb158dd-ef48-422d-b7d6-f7aff6d84f26.mp4</name>
                <rate>
                  <timebase>30</timebase>
                  <ntsc>FALSE</ntsc>
                </rate>
                <duration>1170</duration>
                <start>8693</start>
                <end>9863</end>
                <in>18717</in>
                <out>19887</out>
                <sourcetrack>
                  <mediatype>video</mediatype>
                  <trackindex>1</trackindex>
                </sourcetrack>
                <file ref="file-asset-1770283684686" />
              </clipitem>
              <clipitem id="clipitem-v-21">
                <masterclipid>file-asset-1770283684686</masterclipid>
                <name>5eb158dd-ef48-422d-b7d6-f7aff6d84f26.mp4</name>
                <rate>
                  <timebase>30</timebase>
                  <ntsc>FALSE</ntsc>
                </rate>
                <duration>171</duration>
                <start>9863</start>
                <end>10034</end>
                <in>20686</in>
                <out>20857</out>
                <sourcetrack>
                  <mediatype>video</mediatype>
                  <trackindex>1</trackindex>
                </sourcetrack>
                <file ref="file-asset-1770283684686" />
              </clipitem>
              <clipitem id="clipitem-v-22">
                <masterclipid>file-asset-1770283684686</masterclipid>
                <name>5eb158dd-ef48-422d-b7d6-f7aff6d84f26.mp4</name>
                <rate>
                  <timebase>30</timebase>
                  <ntsc>FALSE</ntsc>
                </rate>
                <duration>959</duration>
                <start>10034</start>
                <end>10993</end>
                <in>21000</in>
                <out>21959</out>
                <sourcetrack>
                  <mediatype>video</mediatype>
                  <trackindex>1</trackindex>
                </sourcetrack>
                <file ref="file-asset-1770283684686" />
              </clipitem>
              <clipitem id="clipitem-v-23">
                <masterclipid>file-asset-1770283684686</masterclipid>
                <name>5eb158dd-ef48-422d-b7d6-f7aff6d84f26.mp4</name>
                <rate>
                  <timebase>30</timebase>
                  <ntsc>FALSE</ntsc>
                </rate>
                <duration>319</duration>
                <start>10993</start>
                <end>11312</end>
                <in>22002</in>
                <out>22321</out>
                <sourcetrack>
                  <mediatype>video</mediatype>
                  <trackindex>1</trackindex>
                </sourcetrack>
                <file ref="file-asset-1770283684686" />
              </clipitem>
              <clipitem id="clipitem-v-24">
                <masterclipid>file-asset-1770283684686</masterclipid>
                <name>5eb158dd-ef48-422d-b7d6-f7aff6d84f26.mp4</name>
                <rate>
                  <timebase>30</timebase>
                  <ntsc>FALSE</ntsc>
                </rate>
                <duration>267</duration>
                <start>11312</start>
                <end>11579</end>
                <in>22722</in>
                <out>22989</out>
                <sourcetrack>
                  <mediatype>video</mediatype>
                  <trackindex>1</trackindex>
                </sourcetrack>
                <file ref="file-asset-1770283684686" />
              </clipitem>
              <clipitem id="clipitem-v-25">
                <masterclipid>file-asset-1770283684686</masterclipid>
                <name>5eb158dd-ef48-422d-b7d6-f7aff6d84f26.mp4</name>
                <rate>
                  <timebase>30</timebase>
                  <ntsc>FALSE</ntsc>
                </rate>
                <duration>433</duration>
                <start>11579</start>
                <end>12012</end>
                <in>23097</in>
                <out>23530</out>
                <sourcetrack>
                  <mediatype>video</mediatype>
                  <trackindex>1</trackindex>
                </sourcetrack>
                <file ref="file-asset-1770283684686" />
              </clipitem>
              <clipitem id="clipitem-v-26">
                <masterclipid>file-asset-1770283684686</masterclipid>
                <name>5eb158dd-ef48-422d-b7d6-f7aff6d84f26.mp4</name>
                <rate>
                  <timebase>30</timebase>
                  <ntsc>FALSE</ntsc>
                </rate>
                <duration>76</duration>
                <start>12012</start>
                <end>12088</end>
                <in>23731</in>
                <out>23807</out>
                <sourcetrack>
                  <mediatype>video</mediatype>
                  <trackindex>1</trackindex>
                </sourcetrack>
                <file ref="file-asset-1770283684686" />
              </clipitem>
              <clipitem id="clipitem-v-27">
                <masterclipid>file-asset-1770283684686</masterclipid>
                <name>5eb158dd-ef48-422d-b7d6-f7aff6d84f26.mp4</name>
                <rate>
                  <timebase>30</timebase>
                  <ntsc>FALSE</ntsc>
                </rate>
                <duration>332</duration>
                <start>12088</start>
                <end>12420</end>
                <in>24612</in>
                <out>24944</out>
                <sourcetrack>
                  <mediatype>video</mediatype>
                  <trackindex>1</trackindex>
                </sourcetrack>
                <file ref="file-asset-1770283684686" />
              </clipitem>
              <clipitem id="clipitem-v-28">
                <masterclipid>file-asset-1770283684686</masterclipid>
                <name>5eb158dd-ef48-422d-b7d6-f7aff6d84f26.mp4</name>
                <rate>
                  <timebase>30</timebase>
                  <ntsc>FALSE</ntsc>
                </rate>
                <duration>125</duration>
                <start>12420</start>
                <end>12545</end>
                <in>24988</in>
                <out>25113</out>
                <sourcetrack>
                  <mediatype>video</mediatype>
                  <trackindex>1</trackindex>
                </sourcetrack>
                <file ref="file-asset-1770283684686" />
              </clipitem>
              <clipitem id="clipitem-v-29">
                <masterclipid>file-asset-1770283684686</masterclipid>
                <name>5eb158dd-ef48-422d-b7d6-f7aff6d84f26.mp4</name>
                <rate>
                  <timebase>30</timebase>
                  <ntsc>FALSE</ntsc>
                </rate>
                <duration>410</duration>
                <start>12545</start>
                <end>12955</end>
                <in>25213</in>
                <out>25623</out>
                <sourcetrack>
                  <mediatype>video</mediatype>
                  <trackindex>1</trackindex>
                </sourcetrack>
                <file ref="file-asset-1770283684686" />
              </clipitem>
              <clipitem id="clipitem-v-30">
                <masterclipid>file-asset-1770283684686</masterclipid>
                <name>5eb158dd-ef48-422d-b7d6-f7aff6d84f26.mp4</name>
                <rate>
                  <timebase>30</timebase>
                  <ntsc>FALSE</ntsc>
                </rate>
                <duration>288</duration>
                <start>12955</start>
                <end>13243</end>
                <in>25753</in>
                <out>26041</out>
                <sourcetrack>
                  <mediatype>video</mediatype>
                  <trackindex>1</trackindex>
                </sourcetrack>
                <file ref="file-asset-1770283684686" />
              </clipitem>
              <clipitem id="clipitem-v-31">
                <masterclipid>file-asset-1770283684686</masterclipid>
                <name>5eb158dd-ef48-422d-b7d6-f7aff6d84f26.mp4</name>
                <rate>
                  <timebase>30</timebase>
                  <ntsc>FALSE</ntsc>
                </rate>
                <duration>1324</duration>
                <start>13243</start>
                <end>14567</end>
                <in>26149</in>
                <out>27473</out>
                <sourcetrack>
                  <mediatype>video</mediatype>
                  <trackindex>1</trackindex>
                </sourcetrack>
                <file ref="file-asset-1770283684686" />
              </clipitem>
              <clipitem id="clipitem-v-32">
                <masterclipid>file-asset-1770283684686</masterclipid>
                <name>5eb158dd-ef48-422d-b7d6-f7aff6d84f26.mp4</name>
                <rate>
                  <timebase>30</timebase>
                  <ntsc>FALSE</ntsc>
                </rate>
                <duration>121</duration>
                <start>14567</start>
                <end>14688</end>
                <in>27498</in>
                <out>27619</out>
                <sourcetrack>
                  <mediatype>video</mediatype>
                  <trackindex>1</trackindex>
                </sourcetrack>
                <file ref="file-asset-1770283684686" />
              </clipitem>
              <clipitem id="clipitem-v-33">
                <masterclipid>file-asset-1770283684686</masterclipid>
                <name>5eb158dd-ef48-422d-b7d6-f7aff6d84f26.mp4</name>
                <rate>
                  <timebase>30</timebase>
                  <ntsc>FALSE</ntsc>
                </rate>
                <duration>430</duration>
                <start>14688</start>
                <end>15118</end>
                <in>27743</in>
                <out>28173</out>
                <sourcetrack>
                  <mediatype>video</mediatype>
                  <trackindex>1</trackindex>
                </sourcetrack>
                <file ref="file-asset-1770283684686" />
              </clipitem>
              <clipitem id="clipitem-v-34">
                <masterclipid>file-asset-1770283684686</masterclipid>
                <name>5eb158dd-ef48-422d-b7d6-f7aff6d84f26.mp4</name>
                <rate>
                  <timebase>30</timebase>
                  <ntsc>FALSE</ntsc>
                </rate>
                <duration>180</duration>
                <start>15118</start>
                <end>15298</end>
                <in>28276</in>
                <out>28456</out>
                <sourcetrack>
                  <mediatype>video</mediatype>
                  <trackindex>1</trackindex>
                </sourcetrack>
                <file ref="file-asset-1770283684686" />
              </clipitem>
              <clipitem id="clipitem-v-35">
                <masterclipid>file-asset-1770283684686</masterclipid>
                <name>5eb158dd-ef48-422d-b7d6-f7aff6d84f26.mp4</name>
                <rate>
                  <timebase>30</timebase>
                  <ntsc>FALSE</ntsc>
                </rate>
                <duration>392</duration>
                <start>15298</start>
                <end>15690</end>
                <in>28815</in>
                <out>29207</out>
                <sourcetrack>
                  <mediatype>video</mediatype>
                  <trackindex>1</trackindex>
                </sourcetrack>
                <file ref="file-asset-1770283684686" />
              </clipitem>
              <clipitem id="clipitem-v-36">
                <masterclipid>file-asset-1770283684686</masterclipid>
                <name>5eb158dd-ef48-422d-b7d6-f7aff6d84f26.mp4</name>
                <rate>
                  <timebase>30</timebase>
                  <ntsc>FALSE</ntsc>
                </rate>
                <duration>676</duration>
                <start>15690</start>
                <end>16366</end>
                <in>29795</in>
                <out>30471</out>
                <sourcetrack>
                  <mediatype>video</mediatype>
                  <trackindex>1</trackindex>
                </sourcetrack>
                <file ref="file-asset-1770283684686" />
              </clipitem>
              <clipitem id="clipitem-v-37">
                <masterclipid>file-asset-1770283684686</masterclipid>
                <name>5eb158dd-ef48-422d-b7d6-f7aff6d84f26.mp4</name>
                <rate>
                  <timebase>30</timebase>
                  <ntsc>FALSE</ntsc>
                </rate>
                <duration>135</duration>
                <start>16366</start>
                <end>16501</end>
                <in>30664</in>
                <out>30799</out>
                <sourcetrack>
                  <mediatype>video</mediatype>
                  <trackindex>1</trackindex>
                </sourcetrack>
                <file ref="file-asset-1770283684686" />
              </clipitem>
              <clipitem id="clipitem-v-38">
                <masterclipid>file-asset-1770283684686</masterclipid>
                <name>5eb158dd-ef48-422d-b7d6-f7aff6d84f26.mp4</name>
                <rate>
                  <timebase>30</timebase>
                  <ntsc>FALSE</ntsc>
                </rate>
                <duration>215</duration>
                <start>16501</start>
                <end>16716</end>
                <in>31029</in>
                <out>31244</out>
                <sourcetrack>
                  <mediatype>video</mediatype>
                  <trackindex>1</trackindex>
                </sourcetrack>
                <file ref="file-asset-1770283684686" />
              </clipitem>
              <clipitem id="clipitem-v-39">
                <masterclipid>file-asset-1770283684686</masterclipid>
                <name>5eb158dd-ef48-422d-b7d6-f7aff6d84f26.mp4</name>
                <rate>
                  <timebase>30</timebase>
                  <ntsc>FALSE</ntsc>
                </rate>
                <duration>334</duration>
                <start>16716</start>
                <end>17050</end>
                <in>31678</in>
                <out>32012</out>
                <sourcetrack>
                  <mediatype>video</mediatype>
                  <trackindex>1</trackindex>
                </sourcetrack>
                <file ref="file-asset-1770283684686" />
              </clipitem>
              <clipitem id="clipitem-v-40">
                <masterclipid>file-asset-1770283684686</masterclipid>
                <name>5eb158dd-ef48-422d-b7d6-f7aff6d84f26.mp4</name>
                <rate>
                  <timebase>30</timebase>
                  <ntsc>FALSE</ntsc>
                </rate>
                <duration>227</duration>
                <start>17050</start>
                <end>17277</end>
                <in>32094</in>
                <out>32321</out>
                <sourcetrack>
                  <mediatype>video</mediatype>
                  <trackindex>1</trackindex>
                </sourcetrack>
                <file ref="file-asset-1770283684686" />
              </clipitem>
              <clipitem id="clipitem-v-41">
                <masterclipid>file-asset-1770283684686</masterclipid>
                <name>5eb158dd-ef48-422d-b7d6-f7aff6d84f26.mp4</name>
                <rate>
                  <timebase>30</timebase>
                  <ntsc>FALSE</ntsc>
                </rate>
                <duration>81</duration>
                <start>17277</start>
                <end>17358</end>
                <in>32761</in>
                <out>32842</out>
                <sourcetrack>
                  <mediatype>video</mediatype>
                  <trackindex>1</trackindex>
                </sourcetrack>
                <file ref="file-asset-1770283684686" />
              </clipitem>
              <clipitem id="clipitem-v-42">
                <masterclipid>file-asset-1770283684686</masterclipid>
                <name>5eb158dd-ef48-422d-b7d6-f7aff6d84f26.mp4</name>
                <rate>
                  <timebase>30</timebase>
                  <ntsc>FALSE</ntsc>
                </rate>
                <duration>358</duration>
                <start>17358</start>
                <end>17716</end>
                <in>32848</in>
                <out>33206</out>
                <sourcetrack>
                  <mediatype>video</mediatype>
                  <trackindex>1</trackindex>
                </sourcetrack>
                <file ref="file-asset-1770283684686" />
              </clipitem>
              <clipitem id="clipitem-v-43">
                <masterclipid>file-asset-1770283684686</masterclipid>
                <name>5eb158dd-ef48-422d-b7d6-f7aff6d84f26.mp4</name>
                <rate>
                  <timebase>30</timebase>
                  <ntsc>FALSE</ntsc>
                </rate>
                <duration>219</duration>
                <start>17716</start>
                <end>17935</end>
                <in>33450</in>
                <out>33669</out>
                <sourcetrack>
                  <mediatype>video</mediatype>
                  <trackindex>1</trackindex>
                </sourcetrack>
                <file ref="file-asset-1770283684686" />
              </clipitem>
              <clipitem id="clipitem-v-44">
                <masterclipid>file-asset-1770283684686</masterclipid>
                <name>5eb158dd-ef48-422d-b7d6-f7aff6d84f26.mp4</name>
                <rate>
                  <timebase>30</timebase>
                  <ntsc>FALSE</ntsc>
                </rate>
                <duration>157</duration>
                <start>17935</start>
                <end>18092</end>
                <in>34051</in>
                <out>34208</out>
                <sourcetrack>
                  <mediatype>video</mediatype>
                  <trackindex>1</trackindex>
                </sourcetrack>
                <file ref="file-asset-1770283684686" />
              </clipitem>
              <clipitem id="clipitem-v-45">
                <masterclipid>file-asset-1770283684686</masterclipid>
                <name>5eb158dd-ef48-422d-b7d6-f7aff6d84f26.mp4</name>
                <rate>
                  <timebase>30</timebase>
                  <ntsc>FALSE</ntsc>
                </rate>
                <duration>170</duration>
                <start>18092</start>
                <end>18262</end>
                <in>34230</in>
                <out>34400</out>
                <sourcetrack>
                  <mediatype>video</mediatype>
                  <trackindex>1</trackindex>
                </sourcetrack>
                <file ref="file-asset-1770283684686" />
              </clipitem>
              <clipitem id="clipitem-v-46">
                <masterclipid>file-asset-1770283684686</masterclipid>
                <name>5eb158dd-ef48-422d-b7d6-f7aff6d84f26.mp4</name>
                <rate>
                  <timebase>30</timebase>
                  <ntsc>FALSE</ntsc>
                </rate>
                <duration>345</duration>
                <start>18262</start>
                <end>18607</end>
                <in>34465</in>
                <out>34810</out>
                <sourcetrack>
                  <mediatype>video</mediatype>
                  <trackindex>1</trackindex>
                </sourcetrack>
                <file ref="file-asset-1770283684686" />
              </clipitem>
              <clipitem id="clipitem-v-47">
                <masterclipid>file-asset-1770283684686</masterclipid>
                <name>5eb158dd-ef48-422d-b7d6-f7aff6d84f26.mp4</name>
                <rate>
                  <timebase>30</timebase>
                  <ntsc>FALSE</ntsc>
                </rate>
                <duration>687</duration>
                <start>18607</start>
                <end>19294</end>
                <in>35074</in>
                <out>35761</out>
                <sourcetrack>
                  <mediatype>video</mediatype>
                  <trackindex>1</trackindex>
                </sourcetrack>
                <file ref="file-asset-1770283684686" />
              </clipitem>
              <clipitem id="clipitem-v-48">
                <masterclipid>file-asset-1770283684686</masterclipid>
                <name>5eb158dd-ef48-422d-b7d6-f7aff6d84f26.mp4</name>
                <rate>
                  <timebase>30</timebase>
                  <ntsc>FALSE</ntsc>
                </rate>
                <duration>489</duration>
                <start>19294</start>
                <end>19783</end>
                <in>35808</in>
                <out>36297</out>
                <sourcetrack>
                  <mediatype>video</mediatype>
                  <trackindex>1</trackindex>
                </sourcetrack>
                <file ref="file-asset-1770283684686" />
              </clipitem>
              <clipitem id="clipitem-v-49">
                <masterclipid>file-asset-1770283684686</masterclipid>
                <name>5eb158dd-ef48-422d-b7d6-f7aff6d84f26.mp4</name>
                <rate>
                  <timebase>30</timebase>
                  <ntsc>FALSE</ntsc>
                </rate>
                <duration>662</duration>
                <start>19783</start>
                <end>20445</end>
                <in>36341</in>
                <out>37003</out>
                <sourcetrack>
                  <mediatype>video</mediatype>
                  <trackindex>1</trackindex>
                </sourcetrack>
                <file ref="file-asset-1770283684686" />
              </clipitem>
              <clipitem id="clipitem-v-50">
                <masterclipid>file-asset-1770283684686</masterclipid>
                <name>5eb158dd-ef48-422d-b7d6-f7aff6d84f26.mp4</name>
                <rate>
                  <timebase>30</timebase>
                  <ntsc>FALSE</ntsc>
                </rate>
                <duration>137</duration>
                <start>20445</start>
                <end>20582</end>
                <in>37301</in>
                <out>37438</out>
                <sourcetrack>
                  <mediatype>video</mediatype>
                  <trackindex>1</trackindex>
                </sourcetrack>
                <file ref="file-asset-1770283684686" />
              </clipitem>
              <clipitem id="clipitem-v-51">
                <masterclipid>file-asset-1770283684686</masterclipid>
                <name>5eb158dd-ef48-422d-b7d6-f7aff6d84f26.mp4</name>
                <rate>
                  <timebase>30</timebase>
                  <ntsc>FALSE</ntsc>
                </rate>
                <duration>113</duration>
                <start>20582</start>
                <end>20695</end>
                <in>37719</in>
                <out>37832</out>
                <sourcetrack>
                  <mediatype>video</mediatype>
                  <trackindex>1</trackindex>
                </sourcetrack>
                <file ref="file-asset-1770283684686" />
              </clipitem>
              <clipitem id="clipitem-v-52">
                <masterclipid>file-asset-1770283684686</masterclipid>
                <name>5eb158dd-ef48-422d-b7d6-f7aff6d84f26.mp4</name>
                <rate>
                  <timebase>30</timebase>
                  <ntsc>FALSE</ntsc>
                </rate>
                <duration>379</duration>
                <start>20695</start>
                <end>21074</end>
                <in>37842</in>
                <out>38221</out>
                <sourcetrack>
                  <mediatype>video</mediatype>
                  <trackindex>1</trackindex>
                </sourcetrack>
                <file ref="file-asset-1770283684686" />
              </clipitem>
              <clipitem id="clipitem-v-53">
                <masterclipid>file-asset-1770283684686</masterclipid>
                <name>5eb158dd-ef48-422d-b7d6-f7aff6d84f26.mp4</name>
                <rate>
                  <timebase>30</timebase>
                  <ntsc>FALSE</ntsc>
                </rate>
                <duration>399</duration>
                <start>21074</start>
                <end>21473</end>
                <in>38376</in>
                <out>38775</out>
                <sourcetrack>
                  <mediatype>video</mediatype>
                  <trackindex>1</trackindex>
                </sourcetrack>
                <file ref="file-asset-1770283684686" />
              </clipitem>
              <clipitem id="clipitem-v-54">
                <masterclipid>file-asset-1770283684686</masterclipid>
                <name>5eb158dd-ef48-422d-b7d6-f7aff6d84f26.mp4</name>
                <rate>
                  <timebase>30</timebase>
                  <ntsc>FALSE</ntsc>
                </rate>
                <duration>177</duration>
                <start>21473</start>
                <end>21650</end>
                <in>38905</in>
                <out>39082</out>
                <sourcetrack>
                  <mediatype>video</mediatype>
                  <trackindex>1</trackindex>
                </sourcetrack>
                <file ref="file-asset-1770283684686" />
              </clipitem>
              <clipitem id="clipitem-v-55">
                <masterclipid>file-asset-1770283684686</masterclipid>
                <name>5eb158dd-ef48-422d-b7d6-f7aff6d84f26.mp4</name>
                <rate>
                  <timebase>30</timebase>
                  <ntsc>FALSE</ntsc>
                </rate>
                <duration>130</duration>
                <start>21650</start>
                <end>21780</end>
                <in>39391</in>
                <out>39521</out>
                <sourcetrack>
                  <mediatype>video</mediatype>
                  <trackindex>1</trackindex>
                </sourcetrack>
                <file ref="file-asset-1770283684686" />
              </clipitem>
              <clipitem id="clipitem-v-56">
                <masterclipid>file-asset-1770283684686</masterclipid>
                <name>5eb158dd-ef48-422d-b7d6-f7aff6d84f26.mp4</name>
                <rate>
                  <timebase>30</timebase>
                  <ntsc>FALSE</ntsc>
                </rate>
                <duration>253</duration>
                <start>21780</start>
                <end>22033</end>
                <in>39654</in>
                <out>39907</out>
                <sourcetrack>
                  <mediatype>video</mediatype>
                  <trackindex>1</trackindex>
                </sourcetrack>
                <file ref="file-asset-1770283684686" />
              </clipitem>
              <clipitem id="clipitem-v-57">
                <masterclipid>file-asset-1770283684686</masterclipid>
                <name>5eb158dd-ef48-422d-b7d6-f7aff6d84f26.mp4</name>
                <rate>
                  <timebase>30</timebase>
                  <ntsc>FALSE</ntsc>
                </rate>
                <duration>238</duration>
                <start>22033</start>
                <end>22271</end>
                <in>39931</in>
                <out>40169</out>
                <sourcetrack>
                  <mediatype>video</mediatype>
                  <trackindex>1</trackindex>
                </sourcetrack>
                <file ref="file-asset-1770283684686" />
              </clipitem>
              <clipitem id="clipitem-v-58">
                <masterclipid>file-asset-1770283684686</masterclipid>
                <name>5eb158dd-ef48-422d-b7d6-f7aff6d84f26.mp4</name>
                <rate>
                  <timebase>30</timebase>
                  <ntsc>FALSE</ntsc>
                </rate>
                <duration>161</duration>
                <start>22271</start>
                <end>22432</end>
                <in>40331</in>
                <out>40492</out>
                <sourcetrack>
                  <mediatype>video</mediatype>
                  <trackindex>1</trackindex>
                </sourcetrack>
                <file ref="file-asset-1770283684686" />
              </clipitem>
              <clipitem id="clipitem-v-59">
                <masterclipid>file-asset-1770283684686</masterclipid>
                <name>5eb158dd-ef48-422d-b7d6-f7aff6d84f26.mp4</name>
                <rate>
                  <timebase>30</timebase>
                  <ntsc>FALSE</ntsc>
                </rate>
                <duration>244</duration>
                <start>22432</start>
                <end>22676</end>
                <in>40667</in>
                <out>40911</out>
                <sourcetrack>
                  <mediatype>video</mediatype>
                  <trackindex>1</trackindex>
                </sourcetrack>
                <file ref="file-asset-1770283684686" />
              </clipitem>
              <clipitem id="clipitem-v-60">
                <masterclipid>file-asset-1770283684686</masterclipid>
                <name>5eb158dd-ef48-422d-b7d6-f7aff6d84f26.mp4</name>
                <rate>
                  <timebase>30</timebase>
                  <ntsc>FALSE</ntsc>
                </rate>
                <duration>143</duration>
                <start>22676</start>
                <end>22819</end>
                <in>40917</in>
                <out>41060</out>
                <sourcetrack>
                  <mediatype>video</mediatype>
                  <trackindex>1</trackindex>
                </sourcetrack>
                <file ref="file-asset-1770283684686" />
              </clipitem>
              <clipitem id="clipitem-v-61">
                <masterclipid>file-asset-1770283684686</masterclipid>
                <name>5eb158dd-ef48-422d-b7d6-f7aff6d84f26.mp4</name>
                <rate>
                  <timebase>30</timebase>
                  <ntsc>FALSE</ntsc>
                </rate>
                <duration>514</duration>
                <start>22819</start>
                <end>23333</end>
                <in>41225</in>
                <out>41739</out>
                <sourcetrack>
                  <mediatype>video</mediatype>
                  <trackindex>1</trackindex>
                </sourcetrack>
                <file ref="file-asset-1770283684686" />
              </clipitem>
              <clipitem id="clipitem-v-62">
                <masterclipid>file-asset-1770283684686</masterclipid>
                <name>5eb158dd-ef48-422d-b7d6-f7aff6d84f26.mp4</name>
                <rate>
                  <timebase>30</timebase>
                  <ntsc>FALSE</ntsc>
                </rate>
                <duration>208</duration>
                <start>23333</start>
                <end>23541</end>
                <in>41879</in>
                <out>42087</out>
                <sourcetrack>
                  <mediatype>video</mediatype>
                  <trackindex>1</trackindex>
                </sourcetrack>
                <file ref="file-asset-1770283684686" />
              </clipitem>
              <clipitem id="clipitem-v-63">
                <masterclipid>file-asset-1770283684686</masterclipid>
                <name>5eb158dd-ef48-422d-b7d6-f7aff6d84f26.mp4</name>
                <rate>
                  <timebase>30</timebase>
                  <ntsc>FALSE</ntsc>
                </rate>
                <duration>447</duration>
                <start>23541</start>
                <end>23988</end>
                <in>42112</in>
                <out>42559</out>
                <sourcetrack>
                  <mediatype>video</mediatype>
                  <trackindex>1</trackindex>
                </sourcetrack>
                <file ref="file-asset-1770283684686" />
              </clipitem>
              <clipitem id="clipitem-v-64">
                <masterclipid>file-asset-1770283684686</masterclipid>
                <name>5eb158dd-ef48-422d-b7d6-f7aff6d84f26.mp4</name>
                <rate>
                  <timebase>30</timebase>
                  <ntsc>FALSE</ntsc>
                </rate>
                <duration>291</duration>
                <start>23988</start>
                <end>24279</end>
                <in>42659</in>
                <out>42950</out>
                <sourcetrack>
                  <mediatype>video</mediatype>
                  <trackindex>1</trackindex>
                </sourcetrack>
                <file ref="file-asset-1770283684686" />
              </clipitem>
              <clipitem id="clipitem-v-65">
                <masterclipid>file-asset-1770283684686</masterclipid>
                <name>5eb158dd-ef48-422d-b7d6-f7aff6d84f26.mp4</name>
                <rate>
                  <timebase>30</timebase>
                  <ntsc>FALSE</ntsc>
                </rate>
                <duration>414</duration>
                <start>24279</start>
                <end>24693</end>
                <in>42964</in>
                <out>43378</out>
                <sourcetrack>
                  <mediatype>video</mediatype>
                  <trackindex>1</trackindex>
                </sourcetrack>
                <file ref="file-asset-1770283684686" />
              </clipitem>
              <clipitem id="clipitem-v-66">
                <masterclipid>file-asset-1770283684686</masterclipid>
                <name>5eb158dd-ef48-422d-b7d6-f7aff6d84f26.mp4</name>
                <rate>
                  <timebase>30</timebase>
                  <ntsc>FALSE</ntsc>
                </rate>
                <duration>323</duration>
                <start>24693</start>
                <end>25016</end>
                <in>43479</in>
                <out>43802</out>
                <sourcetrack>
                  <mediatype>video</mediatype>
                  <trackindex>1</trackindex>
                </sourcetrack>
                <file ref="file-asset-1770283684686" />
              </clipitem>
              <clipitem id="clipitem-v-67">
                <masterclipid>file-asset-1770283684686</masterclipid>
                <name>5eb158dd-ef48-422d-b7d6-f7aff6d84f26.mp4</name>
                <rate>
                  <timebase>30</timebase>
                  <ntsc>FALSE</ntsc>
                </rate>
                <duration>421</duration>
                <start>25016</start>
                <end>25437</end>
                <in>44065</in>
                <out>44486</out>
                <sourcetrack>
                  <mediatype>video</mediatype>
                  <trackindex>1</trackindex>
                </sourcetrack>
                <file ref="file-asset-1770283684686" />
              </clipitem>
              <clipitem id="clipitem-v-68">
                <masterclipid>file-asset-1770283684686</masterclipid>
                <name>5eb158dd-ef48-422d-b7d6-f7aff6d84f26.mp4</name>
                <rate>
                  <timebase>30</timebase>
                  <ntsc>FALSE</ntsc>
                </rate>
                <duration>143</duration>
                <start>25437</start>
                <end>25580</end>
                <in>44493</in>
                <out>44636</out>
                <sourcetrack>
                  <mediatype>video</mediatype>
                  <trackindex>1</trackindex>
                </sourcetrack>
                <file ref="file-asset-1770283684686" />
              </clipitem>
              <clipitem id="clipitem-v-69">
                <masterclipid>file-asset-1770283684686</masterclipid>
                <name>5eb158dd-ef48-422d-b7d6-f7aff6d84f26.mp4</name>
                <rate>
                  <timebase>30</timebase>
                  <ntsc>FALSE</ntsc>
                </rate>
                <duration>714</duration>
                <start>25580</start>
                <end>26294</end>
                <in>45173</in>
                <out>45887</out>
                <sourcetrack>
                  <mediatype>video</mediatype>
                  <trackindex>1</trackindex>
                </sourcetrack>
                <file ref="file-asset-1770283684686" />
              </clipitem>
              <clipitem id="clipitem-v-70">
                <masterclipid>file-asset-1770283684686</masterclipid>
                <name>5eb158dd-ef48-422d-b7d6-f7aff6d84f26.mp4</name>
                <rate>
                  <timebase>30</timebase>
                  <ntsc>FALSE</ntsc>
                </rate>
                <duration>76</duration>
                <start>26294</start>
                <end>26370</end>
                <in>45921</in>
                <out>45997</out>
                <sourcetrack>
                  <mediatype>video</mediatype>
                  <trackindex>1</trackindex>
                </sourcetrack>
                <file ref="file-asset-1770283684686" />
              </clipitem>
              <clipitem id="clipitem-v-71">
                <masterclipid>file-asset-1770283684686</masterclipid>
                <name>5eb158dd-ef48-422d-b7d6-f7aff6d84f26.mp4</name>
                <rate>
                  <timebase>30</timebase>
                  <ntsc>FALSE</ntsc>
                </rate>
                <duration>191</duration>
                <start>26370</start>
                <end>26561</end>
                <in>46044</in>
                <out>46235</out>
                <sourcetrack>
                  <mediatype>video</mediatype>
                  <trackindex>1</trackindex>
                </sourcetrack>
                <file ref="file-asset-1770283684686" />
              </clipitem>
            </track>
          </video>
          <audio>
            <track>
              <clipitem id="clipitem-a-0">
                <masterclipid>file-asset-1770283684686</masterclipid>
                <name>5eb158dd-ef48-422d-b7d6-f7aff6d84f26.mp4</name>
                <rate>
                  <timebase>30</timebase>
                  <ntsc>FALSE</ntsc>
                </rate>
                <duration>212</duration>
                <start>0</start>
                <end>212</end>
                <in>1239</in>
                <out>1451</out>
                <sourcetrack>
                  <mediatype>audio</mediatype>
                  <trackindex>1</trackindex>
                </sourcetrack>
                <file ref="file-asset-1770283684686" />
              </clipitem>
              <clipitem id="clipitem-a-1">
                <masterclipid>file-asset-1770283684686</masterclipid>
                <name>5eb158dd-ef48-422d-b7d6-f7aff6d84f26.mp4</name>
                <rate>
                  <timebase>30</timebase>
                  <ntsc>FALSE</ntsc>
                </rate>
                <duration>307</duration>
                <start>212</start>
                <end>519</end>
                <in>1610</in>
                <out>1917</out>
                <sourcetrack>
                  <mediatype>audio</mediatype>
                  <trackindex>1</trackindex>
                </sourcetrack>
                <file ref="file-asset-1770283684686" />
              </clipitem>
              <clipitem id="clipitem-a-2">
                <masterclipid>file-asset-1770283684686</masterclipid>
                <name>5eb158dd-ef48-422d-b7d6-f7aff6d84f26.mp4</name>
                <rate>
                  <timebase>30</timebase>
                  <ntsc>FALSE</ntsc>
                </rate>
                <duration>208</duration>
                <start>519</start>
                <end>727</end>
                <in>1987</in>
                <out>2195</out>
                <sourcetrack>
                  <mediatype>audio</mediatype>
                  <trackindex>1</trackindex>
                </sourcetrack>
                <file ref="file-asset-1770283684686" />
              </clipitem>
              <clipitem id="clipitem-a-3">
                <masterclipid>file-asset-1770283684686</masterclipid>
                <name>5eb158dd-ef48-422d-b7d6-f7aff6d84f26.mp4</name>
                <rate>
                  <timebase>30</timebase>
                  <ntsc>FALSE</ntsc>
                </rate>
                <duration>688</duration>
                <start>727</start>
                <end>1415</end>
                <in>2758</in>
                <out>3446</out>
                <sourcetrack>
                  <mediatype>audio</mediatype>
                  <trackindex>1</trackindex>
                </sourcetrack>
                <file ref="file-asset-1770283684686" />
              </clipitem>
              <clipitem id="clipitem-a-4">
                <masterclipid>file-asset-1770283684686</masterclipid>
                <name>5eb158dd-ef48-422d-b7d6-f7aff6d84f26.mp4</name>
                <rate>
                  <timebase>30</timebase>
                  <ntsc>FALSE</ntsc>
                </rate>
                <duration>349</duration>
                <start>1415</start>
                <end>1764</end>
                <in>3453</in>
                <out>3802</out>
                <sourcetrack>
                  <mediatype>audio</mediatype>
                  <trackindex>1</trackindex>
                </sourcetrack>
                <file ref="file-asset-1770283684686" />
              </clipitem>
              <clipitem id="clipitem-a-5">
                <masterclipid>file-asset-1770283684686</masterclipid>
                <name>5eb158dd-ef48-422d-b7d6-f7aff6d84f26.mp4</name>
                <rate>
                  <timebase>30</timebase>
                  <ntsc>FALSE</ntsc>
                </rate>
                <duration>456</duration>
                <start>1764</start>
                <end>2220</end>
                <in>3979</in>
                <out>4435</out>
                <sourcetrack>
                  <mediatype>audio</mediatype>
                  <trackindex>1</trackindex>
                </sourcetrack>
                <file ref="file-asset-1770283684686" />
              </clipitem>
              <clipitem id="clipitem-a-6">
                <masterclipid>file-asset-1770283684686</masterclipid>
                <name>5eb158dd-ef48-422d-b7d6-f7aff6d84f26.mp4</name>
                <rate>
                  <timebase>30</timebase>
                  <ntsc>FALSE</ntsc>
                </rate>
                <duration>225</duration>
                <start>2220</start>
                <end>2445</end>
                <in>4650</in>
                <out>4875</out>
                <sourcetrack>
                  <mediatype>audio</mediatype>
                  <trackindex>1</trackindex>
                </sourcetrack>
                <file ref="file-asset-1770283684686" />
              </clipitem>
              <clipitem id="clipitem-a-7">
                <masterclipid>file-asset-1770283684686</masterclipid>
                <name>5eb158dd-ef48-422d-b7d6-f7aff6d84f26.mp4</name>
                <rate>
                  <timebase>30</timebase>
                  <ntsc>FALSE</ntsc>
                </rate>
                <duration>677</duration>
                <start>2445</start>
                <end>3122</end>
                <in>4944</in>
                <out>5621</out>
                <sourcetrack>
                  <mediatype>audio</mediatype>
                  <trackindex>1</trackindex>
                </sourcetrack>
                <file ref="file-asset-1770283684686" />
              </clipitem>
              <clipitem id="clipitem-a-8">
                <masterclipid>file-asset-1770283684686</masterclipid>
                <name>5eb158dd-ef48-422d-b7d6-f7aff6d84f26.mp4</name>
                <rate>
                  <timebase>30</timebase>
                  <ntsc>FALSE</ntsc>
                </rate>
                <duration>1073</duration>
                <start>3122</start>
                <end>4195</end>
                <in>5652</in>
                <out>6725</out>
                <sourcetrack>
                  <mediatype>audio</mediatype>
                  <trackindex>1</trackindex>
                </sourcetrack>
                <file ref="file-asset-1770283684686" />
              </clipitem>
              <clipitem id="clipitem-a-9">
                <masterclipid>file-asset-1770283684686</masterclipid>
                <name>5eb158dd-ef48-422d-b7d6-f7aff6d84f26.mp4</name>
                <rate>
                  <timebase>30</timebase>
                  <ntsc>FALSE</ntsc>
                </rate>
                <duration>431</duration>
                <start>4195</start>
                <end>4626</end>
                <in>7593</in>
                <out>8024</out>
                <sourcetrack>
                  <mediatype>audio</mediatype>
                  <trackindex>1</trackindex>
                </sourcetrack>
                <file ref="file-asset-1770283684686" />
              </clipitem>
              <clipitem id="clipitem-a-10">
                <masterclipid>file-asset-1770283684686</masterclipid>
                <name>5eb158dd-ef48-422d-b7d6-f7aff6d84f26.mp4</name>
                <rate>
                  <timebase>30</timebase>
                  <ntsc>FALSE</ntsc>
                </rate>
                <duration>171</duration>
                <start>4626</start>
                <end>4797</end>
                <in>9217</in>
                <out>9388</out>
                <sourcetrack>
                  <mediatype>audio</mediatype>
                  <trackindex>1</trackindex>
                </sourcetrack>
                <file ref="file-asset-1770283684686" />
              </clipitem>
              <clipitem id="clipitem-a-11">
                <masterclipid>file-asset-1770283684686</masterclipid>
                <name>5eb158dd-ef48-422d-b7d6-f7aff6d84f26.mp4</name>
                <rate>
                  <timebase>30</timebase>
                  <ntsc>FALSE</ntsc>
                </rate>
                <duration>412</duration>
                <start>4797</start>
                <end>5209</end>
                <in>10181</in>
                <out>10593</out>
                <sourcetrack>
                  <mediatype>audio</mediatype>
                  <trackindex>1</trackindex>
                </sourcetrack>
                <file ref="file-asset-1770283684686" />
              </clipitem>
              <clipitem id="clipitem-a-12">
                <masterclipid>file-asset-1770283684686</masterclipid>
                <name>5eb158dd-ef48-422d-b7d6-f7aff6d84f26.mp4</name>
                <rate>
                  <timebase>30</timebase>
                  <ntsc>FALSE</ntsc>
                </rate>
                <duration>633</duration>
                <start>5209</start>
                <end>5842</end>
                <in>11569</in>
                <out>12202</out>
                <sourcetrack>
                  <mediatype>audio</mediatype>
                  <trackindex>1</trackindex>
                </sourcetrack>
                <file ref="file-asset-1770283684686" />
              </clipitem>
              <clipitem id="clipitem-a-13">
                <masterclipid>file-asset-1770283684686</masterclipid>
                <name>5eb158dd-ef48-422d-b7d6-f7aff6d84f26.mp4</name>
                <rate>
                  <timebase>30</timebase>
                  <ntsc>FALSE</ntsc>
                </rate>
                <duration>359</duration>
                <start>5842</start>
                <end>6201</end>
                <in>13752</in>
                <out>14111</out>
                <sourcetrack>
                  <mediatype>audio</mediatype>
                  <trackindex>1</trackindex>
                </sourcetrack>
                <file ref="file-asset-1770283684686" />
              </clipitem>
              <clipitem id="clipitem-a-14">
                <masterclipid>file-asset-1770283684686</masterclipid>
                <name>5eb158dd-ef48-422d-b7d6-f7aff6d84f26.mp4</name>
                <rate>
                  <timebase>30</timebase>
                  <ntsc>FALSE</ntsc>
                </rate>
                <duration>629</duration>
                <start>6201</start>
                <end>6830</end>
                <in>14202</in>
                <out>14831</out>
                <sourcetrack>
                  <mediatype>audio</mediatype>
                  <trackindex>1</trackindex>
                </sourcetrack>
                <file ref="file-asset-1770283684686" />
              </clipitem>
              <clipitem id="clipitem-a-15">
                <masterclipid>file-asset-1770283684686</masterclipid>
                <name>5eb158dd-ef48-422d-b7d6-f7aff6d84f26.mp4</name>
                <rate>
                  <timebase>30</timebase>
                  <ntsc>FALSE</ntsc>
                </rate>
                <duration>418</duration>
                <start>6830</start>
                <end>7248</end>
                <in>15352</in>
                <out>15770</out>
                <sourcetrack>
                  <mediatype>audio</mediatype>
                  <trackindex>1</trackindex>
                </sourcetrack>
                <file ref="file-asset-1770283684686" />
              </clipitem>
              <clipitem id="clipitem-a-16">
                <masterclipid>file-asset-1770283684686</masterclipid>
                <name>5eb158dd-ef48-422d-b7d6-f7aff6d84f26.mp4</name>
                <rate>
                  <timebase>30</timebase>
                  <ntsc>FALSE</ntsc>
                </rate>
                <duration>170</duration>
                <start>7248</start>
                <end>7418</end>
                <in>16133</in>
                <out>16303</out>
                <sourcetrack>
                  <mediatype>audio</mediatype>
                  <trackindex>1</trackindex>
                </sourcetrack>
                <file ref="file-asset-1770283684686" />
              </clipitem>
              <clipitem id="clipitem-a-17">
                <masterclipid>file-asset-1770283684686</masterclipid>
                <name>5eb158dd-ef48-422d-b7d6-f7aff6d84f26.mp4</name>
                <rate>
                  <timebase>30</timebase>
                  <ntsc>FALSE</ntsc>
                </rate>
                <duration>149</duration>
                <start>7418</start>
                <end>7567</end>
                <in>16545</in>
                <out>16694</out>
                <sourcetrack>
                  <mediatype>audio</mediatype>
                  <trackindex>1</trackindex>
                </sourcetrack>
                <file ref="file-asset-1770283684686" />
              </clipitem>
              <clipitem id="clipitem-a-18">
                <masterclipid>file-asset-1770283684686</masterclipid>
                <name>5eb158dd-ef48-422d-b7d6-f7aff6d84f26.mp4</name>
                <rate>
                  <timebase>30</timebase>
                  <ntsc>FALSE</ntsc>
                </rate>
                <duration>683</duration>
                <start>7567</start>
                <end>8250</end>
                <in>17243</in>
                <out>17926</out>
                <sourcetrack>
                  <mediatype>audio</mediatype>
                  <trackindex>1</trackindex>
                </sourcetrack>
                <file ref="file-asset-1770283684686" />
              </clipitem>
              <clipitem id="clipitem-a-19">
                <masterclipid>file-asset-1770283684686</masterclipid>
                <name>5eb158dd-ef48-422d-b7d6-f7aff6d84f26.mp4</name>
                <rate>
                  <timebase>30</timebase>
                  <ntsc>FALSE</ntsc>
                </rate>
                <duration>443</duration>
                <start>8250</start>
                <end>8693</end>
                <in>17986</in>
                <out>18429</out>
                <sourcetrack>
                  <mediatype>audio</mediatype>
                  <trackindex>1</trackindex>
                </sourcetrack>
                <file ref="file-asset-1770283684686" />
              </clipitem>
              <clipitem id="clipitem-a-20">
                <masterclipid>file-asset-1770283684686</masterclipid>
                <name>5eb158dd-ef48-422d-b7d6-f7aff6d84f26.mp4</name>
                <rate>
                  <timebase>30</timebase>
                  <ntsc>FALSE</ntsc>
                </rate>
                <duration>1170</duration>
                <start>8693</start>
                <end>9863</end>
                <in>18717</in>
                <out>19887</out>
                <sourcetrack>
                  <mediatype>audio</mediatype>
                  <trackindex>1</trackindex>
                </sourcetrack>
                <file ref="file-asset-1770283684686" />
              </clipitem>
              <clipitem id="clipitem-a-21">
                <masterclipid>file-asset-1770283684686</masterclipid>
                <name>5eb158dd-ef48-422d-b7d6-f7aff6d84f26.mp4</name>
                <rate>
                  <timebase>30</timebase>
                  <ntsc>FALSE</ntsc>
                </rate>
                <duration>171</duration>
                <start>9863</start>
                <end>10034</end>
                <in>20686</in>
                <out>20857</out>
                <sourcetrack>
                  <mediatype>audio</mediatype>
                  <trackindex>1</trackindex>
                </sourcetrack>
                <file ref="file-asset-1770283684686" />
              </clipitem>
              <clipitem id="clipitem-a-22">
                <masterclipid>file-asset-1770283684686</masterclipid>
                <name>5eb158dd-ef48-422d-b7d6-f7aff6d84f26.mp4</name>
                <rate>
                  <timebase>30</timebase>
                  <ntsc>FALSE</ntsc>
                </rate>
                <duration>959</duration>
                <start>10034</start>
                <end>10993</end>
                <in>21000</in>
                <out>21959</out>
                <sourcetrack>
                  <mediatype>audio</mediatype>
                  <trackindex>1</trackindex>
                </sourcetrack>
                <file ref="file-asset-1770283684686" />
              </clipitem>
              <clipitem id="clipitem-a-23">
                <masterclipid>file-asset-1770283684686</masterclipid>
                <name>5eb158dd-ef48-422d-b7d6-f7aff6d84f26.mp4</name>
                <rate>
                  <timebase>30</timebase>
                  <ntsc>FALSE</ntsc>
                </rate>
                <duration>319</duration>
                <start>10993</start>
                <end>11312</end>
                <in>22002</in>
                <out>22321</out>
                <sourcetrack>
                  <mediatype>audio</mediatype>
                  <trackindex>1</trackindex>
                </sourcetrack>
                <file ref="file-asset-1770283684686" />
              </clipitem>
              <clipitem id="clipitem-a-24">
                <masterclipid>file-asset-1770283684686</masterclipid>
                <name>5eb158dd-ef48-422d-b7d6-f7aff6d84f26.mp4</name>
                <rate>
                  <timebase>30</timebase>
                  <ntsc>FALSE</ntsc>
                </rate>
                <duration>267</duration>
                <start>11312</start>
                <end>11579</end>
                <in>22722</in>
                <out>22989</out>
                <sourcetrack>
                  <mediatype>audio</mediatype>
                  <trackindex>1</trackindex>
                </sourcetrack>
                <file ref="file-asset-1770283684686" />
              </clipitem>
              <clipitem id="clipitem-a-25">
                <masterclipid>file-asset-1770283684686</masterclipid>
                <name>5eb158dd-ef48-422d-b7d6-f7aff6d84f26.mp4</name>
                <rate>
                  <timebase>30</timebase>
                  <ntsc>FALSE</ntsc>
                </rate>
                <duration>433</duration>
                <start>11579</start>
                <end>12012</end>
                <in>23097</in>
                <out>23530</out>
                <sourcetrack>
                  <mediatype>audio</mediatype>
                  <trackindex>1</trackindex>
                </sourcetrack>
                <file ref="file-asset-1770283684686" />
              </clipitem>
              <clipitem id="clipitem-a-26">
                <masterclipid>file-asset-1770283684686</masterclipid>
                <name>5eb158dd-ef48-422d-b7d6-f7aff6d84f26.mp4</name>
                <rate>
                  <timebase>30</timebase>
                  <ntsc>FALSE</ntsc>
                </rate>
                <duration>76</duration>
                <start>12012</start>
                <end>12088</end>
                <in>23731</in>
                <out>23807</out>
                <sourcetrack>
                  <mediatype>audio</mediatype>
                  <trackindex>1</trackindex>
                </sourcetrack>
                <file ref="file-asset-1770283684686" />
              </clipitem>
              <clipitem id="clipitem-a-27">
                <masterclipid>file-asset-1770283684686</masterclipid>
                <name>5eb158dd-ef48-422d-b7d6-f7aff6d84f26.mp4</name>
                <rate>
                  <timebase>30</timebase>
                  <ntsc>FALSE</ntsc>
                </rate>
                <duration>332</duration>
                <start>12088</start>
                <end>12420</end>
                <in>24612</in>
                <out>24944</out>
                <sourcetrack>
                  <mediatype>audio</mediatype>
                  <trackindex>1</trackindex>
                </sourcetrack>
                <file ref="file-asset-1770283684686" />
              </clipitem>
              <clipitem id="clipitem-a-28">
                <masterclipid>file-asset-1770283684686</masterclipid>
                <name>5eb158dd-ef48-422d-b7d6-f7aff6d84f26.mp4</name>
                <rate>
                  <timebase>30</timebase>
                  <ntsc>FALSE</ntsc>
                </rate>
                <duration>125</duration>
                <start>12420</start>
                <end>12545</end>
                <in>24988</in>
                <out>25113</out>
                <sourcetrack>
                  <mediatype>audio</mediatype>
                  <trackindex>1</trackindex>
                </sourcetrack>
                <file ref="file-asset-1770283684686" />
              </clipitem>
              <clipitem id="clipitem-a-29">
                <masterclipid>file-asset-1770283684686</masterclipid>
                <name>5eb158dd-ef48-422d-b7d6-f7aff6d84f26.mp4</name>
                <rate>
                  <timebase>30</timebase>
                  <ntsc>FALSE</ntsc>
                </rate>
                <duration>410</duration>
                <start>12545</start>
                <end>12955</end>
                <in>25213</in>
                <out>25623</out>
                <sourcetrack>
                  <mediatype>audio</mediatype>
                  <trackindex>1</trackindex>
                </sourcetrack>
                <file ref="file-asset-1770283684686" />
              </clipitem>
              <clipitem id="clipitem-a-30">
                <masterclipid>file-asset-1770283684686</masterclipid>
                <name>5eb158dd-ef48-422d-b7d6-f7aff6d84f26.mp4</name>
                <rate>
                  <timebase>30</timebase>
                  <ntsc>FALSE</ntsc>
                </rate>
                <duration>288</duration>
                <start>12955</start>
                <end>13243</end>
                <in>25753</in>
                <out>26041</out>
                <sourcetrack>
                  <mediatype>audio</mediatype>
                  <trackindex>1</trackindex>
                </sourcetrack>
                <file ref="file-asset-1770283684686" />
              </clipitem>
              <clipitem id="clipitem-a-31">
                <masterclipid>file-asset-1770283684686</masterclipid>
                <name>5eb158dd-ef48-422d-b7d6-f7aff6d84f26.mp4</name>
                <rate>
                  <timebase>30</timebase>
                  <ntsc>FALSE</ntsc>
                </rate>
                <duration>1324</duration>
                <start>13243</start>
                <end>14567</end>
                <in>26149</in>
                <out>27473</out>
                <sourcetrack>
                  <mediatype>audio</mediatype>
                  <trackindex>1</trackindex>
                </sourcetrack>
                <file ref="file-asset-1770283684686" />
              </clipitem>
              <clipitem id="clipitem-a-32">
                <masterclipid>file-asset-1770283684686</masterclipid>
                <name>5eb158dd-ef48-422d-b7d6-f7aff6d84f26.mp4</name>
                <rate>
                  <timebase>30</timebase>
                  <ntsc>FALSE</ntsc>
                </rate>
                <duration>121</duration>
                <start>14567</start>
                <end>14688</end>
                <in>27498</in>
                <out>27619</out>
                <sourcetrack>
                  <mediatype>audio</mediatype>
                  <trackindex>1</trackindex>
                </sourcetrack>
                <file ref="file-asset-1770283684686" />
              </clipitem>
              <clipitem id="clipitem-a-33">
                <masterclipid>file-asset-1770283684686</masterclipid>
                <name>5eb158dd-ef48-422d-b7d6-f7aff6d84f26.mp4</name>
                <rate>
                  <timebase>30</timebase>
                  <ntsc>FALSE</ntsc>
                </rate>
                <duration>430</duration>
                <start>14688</start>
                <end>15118</end>
                <in>27743</in>
                <out>28173</out>
                <sourcetrack>
                  <mediatype>audio</mediatype>
                  <trackindex>1</trackindex>
                </sourcetrack>
                <file ref="file-asset-1770283684686" />
              </clipitem>
              <clipitem id="clipitem-a-34">
                <masterclipid>file-asset-1770283684686</masterclipid>
                <name>5eb158dd-ef48-422d-b7d6-f7aff6d84f26.mp4</name>
                <rate>
                  <timebase>30</timebase>
                  <ntsc>FALSE</ntsc>
                </rate>
                <duration>180</duration>
                <start>15118</start>
                <end>15298</end>
                <in>28276</in>
                <out>28456</out>
                <sourcetrack>
                  <mediatype>audio</mediatype>
                  <trackindex>1</trackindex>
                </sourcetrack>
                <file ref="file-asset-1770283684686" />
              </clipitem>
              <clipitem id="clipitem-a-35">
                <masterclipid>file-asset-1770283684686</masterclipid>
                <name>5eb158dd-ef48-422d-b7d6-f7aff6d84f26.mp4</name>
                <rate>
                  <timebase>30</timebase>
                  <ntsc>FALSE</ntsc>
                </rate>
                <duration>392</duration>
                <start>15298</start>
                <end>15690</end>
                <in>28815</in>
                <out>29207</out>
                <sourcetrack>
                  <mediatype>audio</mediatype>
                  <trackindex>1</trackindex>
                </sourcetrack>
                <file ref="file-asset-1770283684686" />
              </clipitem>
              <clipitem id="clipitem-a-36">
                <masterclipid>file-asset-1770283684686</masterclipid>
                <name>5eb158dd-ef48-422d-b7d6-f7aff6d84f26.mp4</name>
                <rate>
                  <timebase>30</timebase>
                  <ntsc>FALSE</ntsc>
                </rate>
                <duration>676</duration>
                <start>15690</start>
                <end>16366</end>
                <in>29795</in>
                <out>30471</out>
                <sourcetrack>
                  <mediatype>audio</mediatype>
                  <trackindex>1</trackindex>
                </sourcetrack>
                <file ref="file-asset-1770283684686" />
              </clipitem>
              <clipitem id="clipitem-a-37">
                <masterclipid>file-asset-1770283684686</masterclipid>
                <name>5eb158dd-ef48-422d-b7d6-f7aff6d84f26.mp4</name>
                <rate>
                  <timebase>30</timebase>
                  <ntsc>FALSE</ntsc>
                </rate>
                <duration>135</duration>
                <start>16366</start>
                <end>16501</end>
                <in>30664</in>
                <out>30799</out>
                <sourcetrack>
                  <mediatype>audio</mediatype>
                  <trackindex>1</trackindex>
                </sourcetrack>
                <file ref="file-asset-1770283684686" />
              </clipitem>
              <clipitem id="clipitem-a-38">
                <masterclipid>file-asset-1770283684686</masterclipid>
                <name>5eb158dd-ef48-422d-b7d6-f7aff6d84f26.mp4</name>
                <rate>
                  <timebase>30</timebase>
                  <ntsc>FALSE</ntsc>
                </rate>
                <duration>215</duration>
                <start>16501</start>
                <end>16716</end>
                <in>31029</in>
                <out>31244</out>
                <sourcetrack>
                  <mediatype>audio</mediatype>
                  <trackindex>1</trackindex>
                </sourcetrack>
                <file ref="file-asset-1770283684686" />
              </clipitem>
              <clipitem id="clipitem-a-39">
                <masterclipid>file-asset-1770283684686</masterclipid>
                <name>5eb158dd-ef48-422d-b7d6-f7aff6d84f26.mp4</name>
                <rate>
                  <timebase>30</timebase>
                  <ntsc>FALSE</ntsc>
                </rate>
                <duration>334</duration>
                <start>16716</start>
                <end>17050</end>
                <in>31678</in>
                <out>32012</out>
                <sourcetrack>
                  <mediatype>audio</mediatype>
                  <trackindex>1</trackindex>
                </sourcetrack>
                <file ref="file-asset-1770283684686" />
              </clipitem>
              <clipitem id="clipitem-a-40">
                <masterclipid>file-asset-1770283684686</masterclipid>
                <name>5eb158dd-ef48-422d-b7d6-f7aff6d84f26.mp4</name>
                <rate>
                  <timebase>30</timebase>
                  <ntsc>FALSE</ntsc>
                </rate>
                <duration>227</duration>
                <start>17050</start>
                <end>17277</end>
                <in>32094</in>
                <out>32321</out>
                <sourcetrack>
                  <mediatype>audio</mediatype>
                  <trackindex>1</trackindex>
                </sourcetrack>
                <file ref="file-asset-1770283684686" />
              </clipitem>
              <clipitem id="clipitem-a-41">
                <masterclipid>file-asset-1770283684686</masterclipid>
                <name>5eb158dd-ef48-422d-b7d6-f7aff6d84f26.mp4</name>
                <rate>
                  <timebase>30</timebase>
                  <ntsc>FALSE</ntsc>
                </rate>
                <duration>81</duration>
                <start>17277</start>
                <end>17358</end>
                <in>32761</in>
                <out>32842</out>
                <sourcetrack>
                  <mediatype>audio</mediatype>
                  <trackindex>1</trackindex>
                </sourcetrack>
                <file ref="file-asset-1770283684686" />
              </clipitem>
              <clipitem id="clipitem-a-42">
                <masterclipid>file-asset-1770283684686</masterclipid>
                <name>5eb158dd-ef48-422d-b7d6-f7aff6d84f26.mp4</name>
                <rate>
                  <timebase>30</timebase>
                  <ntsc>FALSE</ntsc>
                </rate>
                <duration>358</duration>
                <start>17358</start>
                <end>17716</end>
                <in>32848</in>
                <out>33206</out>
                <sourcetrack>
                  <mediatype>audio</mediatype>
                  <trackindex>1</trackindex>
                </sourcetrack>
                <file ref="file-asset-1770283684686" />
              </clipitem>
              <clipitem id="clipitem-a-43">
                <masterclipid>file-asset-1770283684686</masterclipid>
                <name>5eb158dd-ef48-422d-b7d6-f7aff6d84f26.mp4</name>
                <rate>
                  <timebase>30</timebase>
                  <ntsc>FALSE</ntsc>
                </rate>
                <duration>219</duration>
                <start>17716</start>
                <end>17935</end>
                <in>33450</in>
                <out>33669</out>
                <sourcetrack>
                  <mediatype>audio</mediatype>
                  <trackindex>1</trackindex>
                </sourcetrack>
                <file ref="file-asset-1770283684686" />
              </clipitem>
              <clipitem id="clipitem-a-44">
                <masterclipid>file-asset-1770283684686</masterclipid>
                <name>5eb158dd-ef48-422d-b7d6-f7aff6d84f26.mp4</name>
                <rate>
                  <timebase>30</timebase>
                  <ntsc>FALSE</ntsc>
                </rate>
                <duration>157</duration>
                <start>17935</start>
                <end>18092</end>
                <in>34051</in>
                <out>34208</out>
                <sourcetrack>
                  <mediatype>audio</mediatype>
                  <trackindex>1</trackindex>
                </sourcetrack>
                <file ref="file-asset-1770283684686" />
              </clipitem>
              <clipitem id="clipitem-a-45">
                <masterclipid>file-asset-1770283684686</masterclipid>
                <name>5eb158dd-ef48-422d-b7d6-f7aff6d84f26.mp4</name>
                <rate>
                  <timebase>30</timebase>
                  <ntsc>FALSE</ntsc>
                </rate>
                <duration>170</duration>
                <start>18092</start>
                <end>18262</end>
                <in>34230</in>
                <out>34400</out>
                <sourcetrack>
                  <mediatype>audio</mediatype>
                  <trackindex>1</trackindex>
                </sourcetrack>
                <file ref="file-asset-1770283684686" />
              </clipitem>
              <clipitem id="clipitem-a-46">
                <masterclipid>file-asset-1770283684686</masterclipid>
                <name>5eb158dd-ef48-422d-b7d6-f7aff6d84f26.mp4</name>
                <rate>
                  <timebase>30</timebase>
                  <ntsc>FALSE</ntsc>
                </rate>
                <duration>345</duration>
                <start>18262</start>
                <end>18607</end>
                <in>34465</in>
                <out>34810</out>
                <sourcetrack>
                  <mediatype>audio</mediatype>
                  <trackindex>1</trackindex>
                </sourcetrack>
                <file ref="file-asset-1770283684686" />
              </clipitem>
              <clipitem id="clipitem-a-47">
                <masterclipid>file-asset-1770283684686</masterclipid>
                <name>5eb158dd-ef48-422d-b7d6-f7aff6d84f26.mp4</name>
                <rate>
                  <timebase>30</timebase>
                  <ntsc>FALSE</ntsc>
                </rate>
                <duration>687</duration>
                <start>18607</start>
                <end>19294</end>
                <in>35074</in>
                <out>35761</out>
                <sourcetrack>
                  <mediatype>audio</mediatype>
                  <trackindex>1</trackindex>
                </sourcetrack>
                <file ref="file-asset-1770283684686" />
              </clipitem>
              <clipitem id="clipitem-a-48">
                <masterclipid>file-asset-1770283684686</masterclipid>
                <name>5eb158dd-ef48-422d-b7d6-f7aff6d84f26.mp4</name>
                <rate>
                  <timebase>30</timebase>
                  <ntsc>FALSE</ntsc>
                </rate>
                <duration>489</duration>
                <start>19294</start>
                <end>19783</end>
                <in>35808</in>
                <out>36297</out>
                <sourcetrack>
                  <mediatype>audio</mediatype>
                  <trackindex>1</trackindex>
                </sourcetrack>
                <file ref="file-asset-1770283684686" />
              </clipitem>
              <clipitem id="clipitem-a-49">
                <masterclipid>file-asset-1770283684686</masterclipid>
                <name>5eb158dd-ef48-422d-b7d6-f7aff6d84f26.mp4</name>
                <rate>
                  <timebase>30</timebase>
                  <ntsc>FALSE</ntsc>
                </rate>
                <duration>662</duration>
                <start>19783</start>
                <end>20445</end>
                <in>36341</in>
                <out>37003</out>
                <sourcetrack>
                  <mediatype>audio</mediatype>
                  <trackindex>1</trackindex>
                </sourcetrack>
                <file ref="file-asset-1770283684686" />
              </clipitem>
              <clipitem id="clipitem-a-50">
                <masterclipid>file-asset-1770283684686</masterclipid>
                <name>5eb158dd-ef48-422d-b7d6-f7aff6d84f26.mp4</name>
                <rate>
                  <timebase>30</timebase>
                  <ntsc>FALSE</ntsc>
                </rate>
                <duration>137</duration>
                <start>20445</start>
                <end>20582</end>
                <in>37301</in>
                <out>37438</out>
                <sourcetrack>
                  <mediatype>audio</mediatype>
                  <trackindex>1</trackindex>
                </sourcetrack>
                <file ref="file-asset-1770283684686" />
              </clipitem>
              <clipitem id="clipitem-a-51">
                <masterclipid>file-asset-1770283684686</masterclipid>
                <name>5eb158dd-ef48-422d-b7d6-f7aff6d84f26.mp4</name>
                <rate>
                  <timebase>30</timebase>
                  <ntsc>FALSE</ntsc>
                </rate>
                <duration>113</duration>
                <start>20582</start>
                <end>20695</end>
                <in>37719</in>
                <out>37832</out>
                <sourcetrack>
                  <mediatype>audio</mediatype>
                  <trackindex>1</trackindex>
                </sourcetrack>
                <file ref="file-asset-1770283684686" />
              </clipitem>
              <clipitem id="clipitem-a-52">
                <masterclipid>file-asset-1770283684686</masterclipid>
                <name>5eb158dd-ef48-422d-b7d6-f7aff6d84f26.mp4</name>
                <rate>
                  <timebase>30</timebase>
                  <ntsc>FALSE</ntsc>
                </rate>
                <duration>379</duration>
                <start>20695</start>
                <end>21074</end>
                <in>37842</in>
                <out>38221</out>
                <sourcetrack>
                  <mediatype>audio</mediatype>
                  <trackindex>1</trackindex>
                </sourcetrack>
                <file ref="file-asset-1770283684686" />
              </clipitem>
              <clipitem id="clipitem-a-53">
                <masterclipid>file-asset-1770283684686</masterclipid>
                <name>5eb158dd-ef48-422d-b7d6-f7aff6d84f26.mp4</name>
                <rate>
                  <timebase>30</timebase>
                  <ntsc>FALSE</ntsc>
                </rate>
                <duration>399</duration>
                <start>21074</start>
                <end>21473</end>
                <in>38376</in>
                <out>38775</out>
                <sourcetrack>
                  <mediatype>audio</mediatype>
                  <trackindex>1</trackindex>
                </sourcetrack>
                <file ref="file-asset-1770283684686" />
              </clipitem>
              <clipitem id="clipitem-a-54">
                <masterclipid>file-asset-1770283684686</masterclipid>
                <name>5eb158dd-ef48-422d-b7d6-f7aff6d84f26.mp4</name>
                <rate>
                  <timebase>30</timebase>
                  <ntsc>FALSE</ntsc>
                </rate>
                <duration>177</duration>
                <start>21473</start>
                <end>21650</end>
                <in>38905</in>
                <out>39082</out>
                <sourcetrack>
                  <mediatype>audio</mediatype>
                  <trackindex>1</trackindex>
                </sourcetrack>
                <file ref="file-asset-1770283684686" />
              </clipitem>
              <clipitem id="clipitem-a-55">
                <masterclipid>file-asset-1770283684686</masterclipid>
                <name>5eb158dd-ef48-422d-b7d6-f7aff6d84f26.mp4</name>
                <rate>
                  <timebase>30</timebase>
                  <ntsc>FALSE</ntsc>
                </rate>
                <duration>130</duration>
                <start>21650</start>
                <end>21780</end>
                <in>39391</in>
                <out>39521</out>
                <sourcetrack>
                  <mediatype>audio</mediatype>
                  <trackindex>1</trackindex>
                </sourcetrack>
                <file ref="file-asset-1770283684686" />
              </clipitem>
              <clipitem id="clipitem-a-56">
                <masterclipid>file-asset-1770283684686</masterclipid>
                <name>5eb158dd-ef48-422d-b7d6-f7aff6d84f26.mp4</name>
                <rate>
                  <timebase>30</timebase>
                  <ntsc>FALSE</ntsc>
                </rate>
                <duration>253</duration>
                <start>21780</start>
                <end>22033</end>
                <in>39654</in>
                <out>39907</out>
                <sourcetrack>
                  <mediatype>audio</mediatype>
                  <trackindex>1</trackindex>
                </sourcetrack>
                <file ref="file-asset-1770283684686" />
              </clipitem>
              <clipitem id="clipitem-a-57">
                <masterclipid>file-asset-1770283684686</masterclipid>
                <name>5eb158dd-ef48-422d-b7d6-f7aff6d84f26.mp4</name>
                <rate>
                  <timebase>30</timebase>
                  <ntsc>FALSE</ntsc>
                </rate>
                <duration>238</duration>
                <start>22033</start>
                <end>22271</end>
                <in>39931</in>
                <out>40169</out>
                <sourcetrack>
                  <mediatype>audio</mediatype>
                  <trackindex>1</trackindex>
                </sourcetrack>
                <file ref="file-asset-1770283684686" />
              </clipitem>
              <clipitem id="clipitem-a-58">
                <masterclipid>file-asset-1770283684686</masterclipid>
                <name>5eb158dd-ef48-422d-b7d6-f7aff6d84f26.mp4</name>
                <rate>
                  <timebase>30</timebase>
                  <ntsc>FALSE</ntsc>
                </rate>
                <duration>161</duration>
                <start>22271</start>
                <end>22432</end>
                <in>40331</in>
                <out>40492</out>
                <sourcetrack>
                  <mediatype>audio</mediatype>
                  <trackindex>1</trackindex>
                </sourcetrack>
                <file ref="file-asset-1770283684686" />
              </clipitem>
              <clipitem id="clipitem-a-59">
                <masterclipid>file-asset-1770283684686</masterclipid>
                <name>5eb158dd-ef48-422d-b7d6-f7aff6d84f26.mp4</name>
                <rate>
                  <timebase>30</timebase>
                  <ntsc>FALSE</ntsc>
                </rate>
                <duration>244</duration>
                <start>22432</start>
                <end>22676</end>
                <in>40667</in>
                <out>40911</out>
                <sourcetrack>
                  <mediatype>audio</mediatype>
                  <trackindex>1</trackindex>
                </sourcetrack>
                <file ref="file-asset-1770283684686" />
              </clipitem>
              <clipitem id="clipitem-a-60">
                <masterclipid>file-asset-1770283684686</masterclipid>
                <name>5eb158dd-ef48-422d-b7d6-f7aff6d84f26.mp4</name>
                <rate>
                  <timebase>30</timebase>
                  <ntsc>FALSE</ntsc>
                </rate>
                <duration>143</duration>
                <start>22676</start>
                <end>22819</end>
                <in>40917</in>
                <out>41060</out>
                <sourcetrack>
                  <mediatype>audio</mediatype>
                  <trackindex>1</trackindex>
                </sourcetrack>
                <file ref="file-asset-1770283684686" />
              </clipitem>
              <clipitem id="clipitem-a-61">
                <masterclipid>file-asset-1770283684686</masterclipid>
                <name>5eb158dd-ef48-422d-b7d6-f7aff6d84f26.mp4</name>
                <rate>
                  <timebase>30</timebase>
                  <ntsc>FALSE</ntsc>
                </rate>
                <duration>514</duration>
                <start>22819</start>
                <end>23333</end>
                <in>41225</in>
                <out>41739</out>
                <sourcetrack>
                  <mediatype>audio</mediatype>
                  <trackindex>1</trackindex>
                </sourcetrack>
                <file ref="file-asset-1770283684686" />
              </clipitem>
              <clipitem id="clipitem-a-62">
                <masterclipid>file-asset-1770283684686</masterclipid>
                <name>5eb158dd-ef48-422d-b7d6-f7aff6d84f26.mp4</name>
                <rate>
                  <timebase>30</timebase>
                  <ntsc>FALSE</ntsc>
                </rate>
                <duration>208</duration>
                <start>23333</start>
                <end>23541</end>
                <in>41879</in>
                <out>42087</out>
                <sourcetrack>
                  <mediatype>audio</mediatype>
                  <trackindex>1</trackindex>
                </sourcetrack>
                <file ref="file-asset-1770283684686" />
              </clipitem>
              <clipitem id="clipitem-a-63">
                <masterclipid>file-asset-1770283684686</masterclipid>
                <name>5eb158dd-ef48-422d-b7d6-f7aff6d84f26.mp4</name>
                <rate>
                  <timebase>30</timebase>
                  <ntsc>FALSE</ntsc>
                </rate>
                <duration>447</duration>
                <start>23541</start>
                <end>23988</end>
                <in>42112</in>
                <out>42559</out>
                <sourcetrack>
                  <mediatype>audio</mediatype>
                  <trackindex>1</trackindex>
                </sourcetrack>
                <file ref="file-asset-1770283684686" />
              </clipitem>
              <clipitem id="clipitem-a-64">
                <masterclipid>file-asset-1770283684686</masterclipid>
                <name>5eb158dd-ef48-422d-b7d6-f7aff6d84f26.mp4</name>
                <rate>
                  <timebase>30</timebase>
                  <ntsc>FALSE</ntsc>
                </rate>
                <duration>291</duration>
                <start>23988</start>
                <end>24279</end>
                <in>42659</in>
                <out>42950</out>
                <sourcetrack>
                  <mediatype>audio</mediatype>
                  <trackindex>1</trackindex>
                </sourcetrack>
                <file ref="file-asset-1770283684686" />
              </clipitem>
              <clipitem id="clipitem-a-65">
                <masterclipid>file-asset-1770283684686</masterclipid>
                <name>5eb158dd-ef48-422d-b7d6-f7aff6d84f26.mp4</name>
                <rate>
                  <timebase>30</timebase>
                  <ntsc>FALSE</ntsc>
                </rate>
                <duration>414</duration>
                <start>24279</start>
                <end>24693</end>
                <in>42964</in>
                <out>43378</out>
                <sourcetrack>
                  <mediatype>audio</mediatype>
                  <trackindex>1</trackindex>
                </sourcetrack>
                <file ref="file-asset-1770283684686" />
              </clipitem>
              <clipitem id="clipitem-a-66">
                <masterclipid>file-asset-1770283684686</masterclipid>
                <name>5eb158dd-ef48-422d-b7d6-f7aff6d84f26.mp4</name>
                <rate>
                  <timebase>30</timebase>
                  <ntsc>FALSE</ntsc>
                </rate>
                <duration>323</duration>
                <start>24693</start>
                <end>25016</end>
                <in>43479</in>
                <out>43802</out>
                <sourcetrack>
                  <mediatype>audio</mediatype>
                  <trackindex>1</trackindex>
                </sourcetrack>
                <file ref="file-asset-1770283684686" />
              </clipitem>
              <clipitem id="clipitem-a-67">
                <masterclipid>file-asset-1770283684686</masterclipid>
                <name>5eb158dd-ef48-422d-b7d6-f7aff6d84f26.mp4</name>
                <rate>
                  <timebase>30</timebase>
                  <ntsc>FALSE</ntsc>
                </rate>
                <duration>421</duration>
                <start>25016</start>
                <end>25437</end>
                <in>44065</in>
                <out>44486</out>
                <sourcetrack>
                  <mediatype>audio</mediatype>
                  <trackindex>1</trackindex>
                </sourcetrack>
                <file ref="file-asset-1770283684686" />
              </clipitem>
              <clipitem id="clipitem-a-68">
                <masterclipid>file-asset-1770283684686</masterclipid>
                <name>5eb158dd-ef48-422d-b7d6-f7aff6d84f26.mp4</name>
                <rate>
                  <timebase>30</timebase>
                  <ntsc>FALSE</ntsc>
                </rate>
                <duration>143</duration>
                <start>25437</start>
                <end>25580</end>
                <in>44493</in>
                <out>44636</out>
                <sourcetrack>
                  <mediatype>audio</mediatype>
                  <trackindex>1</trackindex>
                </sourcetrack>
                <file ref="file-asset-1770283684686" />
              </clipitem>
              <clipitem id="clipitem-a-69">
                <masterclipid>file-asset-1770283684686</masterclipid>
                <name>5eb158dd-ef48-422d-b7d6-f7aff6d84f26.mp4</name>
                <rate>
                  <timebase>30</timebase>
                  <ntsc>FALSE</ntsc>
                </rate>
                <duration>714</duration>
                <start>25580</start>
                <end>26294</end>
                <in>45173</in>
                <out>45887</out>
                <sourcetrack>
                  <mediatype>audio</mediatype>
                  <trackindex>1</trackindex>
                </sourcetrack>
                <file ref="file-asset-1770283684686" />
              </clipitem>
              <clipitem id="clipitem-a-70">
                <masterclipid>file-asset-1770283684686</masterclipid>
                <name>5eb158dd-ef48-422d-b7d6-f7aff6d84f26.mp4</name>
                <rate>
                  <timebase>30</timebase>
                  <ntsc>FALSE</ntsc>
                </rate>
                <duration>76</duration>
                <start>26294</start>
                <end>26370</end>
                <in>45921</in>
                <out>45997</out>
                <sourcetrack>
                  <mediatype>audio</mediatype>
                  <trackindex>1</trackindex>
                </sourcetrack>
                <file ref="file-asset-1770283684686" />
              </clipitem>
              <clipitem id="clipitem-a-71">
                <masterclipid>file-asset-1770283684686</masterclipid>
                <name>5eb158dd-ef48-422d-b7d6-f7aff6d84f26.mp4</name>
                <rate>
                  <timebase>30</timebase>
                  <ntsc>FALSE</ntsc>
                </rate>
                <duration>191</duration>
                <start>26370</start>
                <end>26561</end>
                <in>46044</in>
                <out>46235</out>
                <sourcetrack>
                  <mediatype>audio</mediatype>
                  <trackindex>1</trackindex>
                </sourcetrack>
                <file ref="file-asset-1770283684686" />
              </clipitem>
            </track>
          </audio>
        </media>
      </sequence>
    </children>
  </project>
</xmeml>